<svg width="318" height="163" viewBox="0 0 318 163" fill="none" xmlns="http://www.w3.org/2000/svg">
<path d="M136.439 151.982V146.118H139.372V151.982H140.594C141.083 151.982 141.327 151.982 141.572 151.737C141.816 151.737 141.816 151.493 142.061 151.249L143.527 148.072C143.772 147.339 144.505 146.606 144.994 146.362C145.482 146.118 146.216 145.873 147.193 145.873C147.927 145.873 148.416 145.873 149.149 146.118L148.904 148.805H147.927C147.438 148.805 147.193 148.805 146.949 149.05C146.705 149.294 146.46 149.294 146.46 149.538L144.994 152.471C144.749 152.715 144.505 153.204 144.505 153.204L149.638 161.511H145.971L141.816 154.67C141.572 154.67 141.327 154.67 141.083 154.67H139.616V161.511H136.683V154.67H135.217C134.972 154.67 134.728 154.67 134.484 154.67L130.328 161.511H126.662L131.795 153.204C131.55 152.959 131.306 152.715 131.306 152.471L129.84 149.538C129.595 149.294 129.595 149.05 129.351 149.05C129.106 148.805 128.617 148.805 128.373 148.805H127.395L127.151 146.118C127.884 145.873 128.373 145.873 129.106 145.873C129.84 145.873 130.817 146.118 131.306 146.362C132.039 146.606 132.528 147.339 132.773 148.072L134.239 151.249C134.239 151.493 134.484 151.737 134.728 151.737C134.972 151.982 135.217 151.982 135.706 151.982H136.439Z" fill="#2F2482"/>
<path d="M136.439 151.982V146.118H139.372V151.982H140.594C141.083 151.982 141.327 151.982 141.572 151.737C141.816 151.737 141.816 151.493 142.061 151.249L143.527 148.072C143.772 147.339 144.505 146.606 144.994 146.362C145.482 146.118 146.216 145.873 147.193 145.873C147.927 145.873 148.416 145.873 149.149 146.118L148.904 148.805H147.927C147.438 148.805 147.193 148.805 146.949 149.05C146.705 149.294 146.46 149.294 146.46 149.538L144.994 152.471C144.749 152.715 144.505 153.204 144.505 153.204L149.638 161.511H145.971L141.816 154.67C141.572 154.67 141.327 154.67 141.083 154.67H139.616V161.511H136.683V154.67H135.217C134.972 154.67 134.728 154.67 134.484 154.67L130.328 161.511H126.662L131.795 153.204C131.55 152.959 131.306 152.715 131.306 152.471L129.84 149.538C129.595 149.294 129.595 149.05 129.351 149.05C129.106 148.805 128.617 148.805 128.373 148.805H127.395L127.151 146.118C127.884 145.873 128.373 145.873 129.106 145.873C129.84 145.873 130.817 146.118 131.306 146.362C132.039 146.606 132.528 147.339 132.773 148.072L134.239 151.249C134.239 151.493 134.484 151.737 134.728 151.737C134.972 151.982 135.217 151.982 135.706 151.982H136.439V151.982Z" stroke="white" stroke-width="0.216" stroke-miterlimit="22.9256"/>
<path d="M157.459 156.625L165.769 146.118H168.702V161.511H165.525V150.76L157.215 161.511H154.526V146.118H157.459V156.625Z" fill="#2F2482"/>
<path d="M157.459 156.625L165.769 146.118H168.702V161.511H165.525V150.76L157.215 161.511H154.526V146.118H157.459V156.625Z" stroke="white" stroke-width="0.216" stroke-miterlimit="22.9256" />
<path d="M189.723 146.118V161.511H186.79V148.806H181.412L180.19 158.091C179.946 159.312 179.701 160.045 178.968 160.778C178.235 161.511 177.257 161.756 176.28 161.756C175.302 161.756 174.569 161.756 173.591 161.267L174.324 158.579C175.057 158.824 175.302 158.824 175.791 158.824C176.28 158.824 176.768 158.579 177.013 158.579C177.257 158.335 177.257 158.091 177.502 157.358L178.968 146.118H189.723Z" fill="#2F2482"/>
<path d="M189.723 146.118V161.511H186.79V148.806H181.412L180.19 158.091C179.946 159.312 179.701 160.045 178.968 160.778C178.235 161.511 177.257 161.756 176.28 161.756C175.302 161.756 174.569 161.756 173.591 161.267L174.324 158.579C175.057 158.824 175.302 158.824 175.791 158.824C176.28 158.824 176.768 158.579 177.013 158.579C177.257 158.335 177.257 158.091 177.502 157.358L178.968 146.118H189.723V146.118Z" stroke="white" stroke-width="0.216" stroke-miterlimit="22.9256"/>
<path d="M199.499 157.357C200.477 158.335 201.944 158.824 203.166 158.824C204.877 158.824 206.343 158.091 207.81 156.869L209.765 158.824C207.81 160.778 206.099 161.511 203.41 161.511C200.966 161.511 199.011 160.778 197.544 159.312C196.078 157.846 195.1 155.891 195.1 153.448C195.1 151.249 195.833 149.294 197.3 147.828C198.766 146.362 200.722 145.385 203.166 145.385C205.854 145.385 207.565 146.118 209.521 148.072L207.565 150.272C206.099 149.05 204.632 148.317 202.921 148.317C201.455 148.317 200.233 148.805 199.255 149.783C198.277 150.76 197.789 151.982 197.789 153.448C198.033 155.403 198.766 156.624 199.499 157.357Z" fill="#2F2482"/>
<path d="M199.499 157.357C200.477 158.335 201.944 158.824 203.166 158.824C204.877 158.824 206.343 158.091 207.81 156.869L209.765 158.824C207.81 160.778 206.099 161.511 203.41 161.511C200.966 161.511 199.011 160.778 197.544 159.312C196.078 157.846 195.1 155.891 195.1 153.448C195.1 151.249 195.833 149.294 197.3 147.828C198.766 146.362 200.722 145.385 203.166 145.385C205.854 145.385 207.565 146.118 209.521 148.072L207.565 150.272C206.099 149.05 204.632 148.317 202.921 148.317C201.455 148.317 200.233 148.805 199.255 149.783C198.277 150.76 197.789 151.982 197.789 153.448C198.033 155.403 198.766 156.624 199.499 157.357Z" stroke="white" stroke-width="0.216" stroke-miterlimit="22.9256"/>
<path d="M214.165 146.118H228.341V148.806H222.719V161.511H219.786V148.806H214.165V146.118Z" fill="#2F2482"/>
<path d="M214.165 146.118H228.341V148.806H222.719V161.511H219.786V148.806H214.165V146.118Z" stroke="white" stroke-width="0.216" stroke-miterlimit="22.9256"/>
<path d="M244.962 155.891C243.74 156.869 242.517 157.602 240.807 157.602H236.407V161.756H233.229V146.362H240.807C242.762 146.362 244.228 147.095 245.451 148.561C246.184 149.538 246.673 150.76 246.673 152.226C246.673 153.448 245.939 154.67 244.962 155.891ZM242.762 153.692C243.251 153.204 243.495 152.471 243.495 151.738C243.495 150.76 243.251 150.271 242.762 149.783C242.273 149.294 241.54 149.05 240.318 149.05H236.163V154.67H240.562C241.54 154.67 242.273 154.425 242.762 153.692Z" fill="#2F2482"/>
<path d="M244.962 155.891C243.74 156.869 242.517 157.602 240.807 157.602H236.407V161.756H233.229V146.362H240.807C242.762 146.362 244.228 147.095 245.451 148.561C246.184 149.538 246.673 150.76 246.673 152.226C246.673 153.448 245.939 154.67 244.962 155.891ZM242.762 153.692C243.251 153.204 243.495 152.471 243.495 151.738C243.495 150.76 243.251 150.271 242.762 149.783C242.273 149.294 241.54 149.05 240.318 149.05H236.163V154.67H240.562C241.54 154.67 242.273 154.425 242.762 153.692Z" stroke="white" stroke-width="0.216" stroke-miterlimit="22.9256"/>
<path d="M265.493 148.072C266.96 149.538 267.937 151.493 267.937 153.937C267.937 156.136 267.204 158.09 265.738 159.556C264.271 161.023 262.316 162 259.871 162C257.427 162 255.227 161.023 253.761 159.556C252.539 158.09 251.561 156.136 251.561 153.937C251.561 151.737 252.294 149.783 253.761 148.317C255.227 146.851 257.183 145.873 259.871 145.873C262.071 145.873 264.027 146.606 265.493 148.072ZM255.961 157.357C256.938 158.335 258.16 159.068 259.627 159.068C261.094 159.068 262.316 158.579 263.293 157.602C264.027 156.624 264.76 155.403 264.76 153.937C264.76 152.471 264.271 151.004 263.538 150.271C262.56 149.294 261.338 148.805 259.871 148.805C258.405 148.805 257.183 149.294 256.205 150.271C255.472 151.249 254.739 152.471 254.739 153.937C254.494 155.403 254.983 156.38 255.961 157.357Z" fill="#2F2482"/>
<path d="M265.493 148.072C266.96 149.538 267.937 151.493 267.937 153.937C267.937 156.136 267.204 158.09 265.738 159.556C264.271 161.023 262.316 162 259.871 162C257.427 162 255.227 161.023 253.761 159.556C252.539 158.09 251.561 156.136 251.561 153.937C251.561 151.737 252.294 149.783 253.761 148.317C255.227 146.851 257.183 145.873 259.871 145.873C262.071 145.873 264.027 146.606 265.493 148.072ZM255.961 157.357C256.938 158.335 258.16 159.068 259.627 159.068C261.094 159.068 262.316 158.579 263.293 157.602C264.027 156.624 264.76 155.403 264.76 153.937C264.76 152.471 264.271 151.004 263.538 150.271C262.56 149.294 261.338 148.805 259.871 148.805C258.405 148.805 257.183 149.294 256.205 150.271C255.472 151.249 254.739 152.471 254.739 153.937C254.494 155.403 254.983 156.38 255.961 157.357Z" stroke="white" stroke-width="0.216" stroke-miterlimit="22.9256"/>
<path d="M276.003 156.624L284.314 145.873H287.002V161.267H284.069V150.516L275.759 161.267H273.07V145.873H276.003V156.624ZM284.314 142.453C284.069 143.186 283.336 143.919 282.847 144.163C282.114 144.652 281.136 144.896 280.403 144.896C279.67 144.896 278.692 144.652 277.959 144.163C277.47 143.674 276.737 143.186 276.492 142.453L278.692 141.475C278.936 141.72 279.181 141.964 279.425 142.208C279.67 142.453 280.158 142.697 280.647 142.697C281.136 142.697 281.38 142.453 281.869 142.208C282.114 141.964 282.358 141.72 282.603 141.231L284.314 142.453Z" fill="#2F2482"/>
<path d="M276.003 156.624L284.314 145.873H287.002V161.267H284.069V150.516L275.759 161.267H273.07V145.873H276.003V156.624ZM284.314 142.453C284.069 143.186 283.336 143.919 282.847 144.163C282.114 144.652 281.136 144.896 280.403 144.896C279.67 144.896 278.692 144.652 277.959 144.163C277.47 143.674 276.737 143.186 276.492 142.453L278.692 141.475C278.936 141.72 279.181 141.964 279.425 142.208C279.67 142.453 280.158 142.697 280.647 142.697C281.136 142.697 281.38 142.453 281.869 142.208C282.114 141.964 282.358 141.72 282.603 141.231L284.314 142.453Z" stroke="white" stroke-width="0.216" stroke-miterlimit="22.9256"/>
<path d="M244.228 38.3619L282.847 49.8461V64.5067L244.228 52.7782V38.3619Z" fill="#2F2482"/>
<path d="M244.473 38.3619L171.391 60.1085V64.7511L244.473 43.0045V38.3619Z" fill="#2F2482"/>
<path d="M244.228 0L282.847 11.4842V26.1448L244.228 14.4163V0Z" fill="#2F2482"/>
<path d="M244.473 0L171.391 21.7466V26.3891L244.473 4.64253V0Z" fill="#2F2482"/>
<path d="M244.228 19.0589L282.847 30.7874V45.2037L244.228 33.7195V19.0589Z" fill="#2F2482"/>
<path d="M244.473 19.0589L171.391 41.0498V45.6924L244.473 23.7014V19.0589Z" fill="#2F2482"/>
<path d="M302.401 84.2987V98.4706H282.847V84.2987H276.248V121.195H282.847V104.335H302.401V121.195H309V84.2987H302.401ZM238.851 102.869C238.851 99.2037 240.318 96.0272 242.273 93.5838C244.717 91.1403 248.139 89.6743 251.806 89.6743C255.472 89.6743 258.649 91.1403 261.094 93.5838C263.293 95.7829 264.515 98.9593 264.515 102.869C264.515 106.534 263.049 109.71 261.094 112.154C258.649 114.597 255.472 116.063 251.561 116.063C247.895 116.063 244.473 114.597 242.029 111.91C240.318 109.71 238.851 106.534 238.851 102.869ZM251.806 83.81C245.939 83.81 240.807 86.0091 237.385 89.6743C234.207 93.0951 232.252 97.7376 232.252 102.869C232.252 107.756 234.207 112.643 237.385 115.819C240.807 119.484 245.939 121.928 251.806 121.928C257.672 121.928 262.56 119.729 265.982 116.308C269.404 112.887 271.115 108.244 271.115 102.869C271.115 97.4933 269.159 92.6064 265.738 89.1856C262.316 85.7648 257.672 83.81 251.806 83.81ZM201.21 84.2987L197.544 111.421C197.3 112.643 196.811 113.864 196.078 114.597C195.344 115.33 194.367 115.575 193.145 115.575C192.167 115.575 191.189 115.575 189.723 115.086L188.501 120.462C190.7 121.195 192.167 121.439 194.367 121.439C197.055 121.439 199.255 120.706 200.722 119.24C202.188 117.774 203.166 115.819 203.655 112.887L206.832 89.9186H220.764V120.95H227.119V84.2987H201.21ZM165.525 91.1403H166.258L173.346 108.733H158.681L165.525 91.1403ZM162.592 84.2987L146.216 121.195H153.06L155.993 114.353H175.791L178.968 121.195H186.056L169.68 84.2987H162.592ZM114.441 90.4073H128.129V121.439H134.484V90.4073H148.171V84.543H114.441V90.4073ZM87.0659 105.068H106.62C106.375 107.756 105.397 109.955 103.931 111.665C101.487 114.353 97.8204 116.063 93.9097 116.063C89.5101 116.063 86.3327 114.353 82.9108 111.421L79 115.819C83.3996 119.973 87.7992 121.928 93.9097 121.928C99.5314 121.928 104.42 119.973 107.842 116.552C111.264 113.131 113.463 108.489 113.463 102.869C113.463 97.2489 111.264 92.6064 107.842 89.1856C104.175 85.7648 99.287 83.81 93.9097 83.81C87.7992 83.81 83.3996 85.7648 78.7556 89.6743L82.6663 94.0724C85.8438 91.1403 89.2657 89.6743 93.6653 89.6743C97.3316 89.6743 100.509 91.1403 103.198 93.5838C104.42 94.8055 105.642 97.0046 106.131 99.2037H86.5771V105.068H87.0659Z" fill="#1A1A18"/>
</svg>
