<svg width="318" height="158" viewBox="0 0 318 158" fill="none" xmlns="http://www.w3.org/2000/svg">
<g clip-path="url(#clip0)">
<path d="M241.6 -0.100006L279.7 10.4V24.8L241.6 14.4V-0.100006Z" fill="#009944"/>
<path d="M241.7 0L169.6 19.7V24.3L241.7 4.60001V0Z" fill="#009944"/>
<path d="M241.6 19L279.7 29.4V43.9L241.6 33.4V19Z" fill="#009944"/>
<path d="M241.7 19L169.6 38.7V43.3L241.7 23.7V19Z" fill="#009944"/>
<path d="M241.6 38L279.7 48.5V62.9L241.6 52.5V38Z" fill="#009944"/>
<path d="M241.7 38.1L169.6 57.8V62.4L241.7 42.7V38.1Z" fill="#009944"/>
<path d="M23.8 99.2V85.7H30.8V99.2H33.8C34.9 99.2 35.6 99 36.2 98.7C36.6 98.5 36.9 98.1 37.1 97.6L40.5 90.4C41.3 88.8 42.6 87.2 44 86.5C45.4 85.7 47.1 85.3 49 85.3C50.4 85.3 51.7 85.4 53.3 85.7L52.6 91.7H50.4C49.5 91.7 48.6 91.8 47.9 92.2C47.3 92.5 46.9 93 46.6 93.5L43.2 100.3C42.8 101 42.3 101.8 41.9 102.3L53.8 121.4H45.4L36 105.4C35.4 105.6 34.8 105.6 34 105.6H30.6V121.3H23.6V105.6H20.2C19.5 105.6 18.8 105.5 18.2 105.4L8.80003 121.4H0.400024L12.3 102.3C11.9 101.8 11.4 101 11 100.3L7.60004 93.5C7.30004 93 6.90003 92.5 6.30003 92.2C5.60003 91.8 4.80003 91.7 3.80003 91.7H1.60004L0.900024 85.7C2.50002 85.4 3.80003 85.3 5.20003 85.3C7.20003 85.3 8.90003 85.7 10.2 86.5C11.6 87.3 12.9 88.8 13.7 90.4L17.1 97.6C17.3 98.1 17.6 98.5 18 98.7C18.5 99 19.3 99.2 20.4 99.2H23.8Z" fill="black"/>
<path d="M64.7 110.3L83.9 85.7H90.3V121.5H83.5V96.8L64.2 121.5H57.9V85.7H64.7V110.3Z" fill="black"/>
<path d="M131.3 85.7V121.5H124.4V92.2H111.9L109 113.5C108.6 116.2 107.7 118.3 106.2 119.6C104.6 121 102.5 121.7 99.8 121.7C97.6 121.7 96.1 121.5 93.8 120.6L95.3 114.6C96.8 115 97.5001 115.1 98.7001 115.1C99.8001 115.1 100.7 114.8 101.3 114.3C101.8 113.8 102.1 112.9 102.3 111.7L105.9 85.7H131.3Z" fill="black"/>
<path d="M146.3 112.1C148.6 114.4 151.6 115.7 154.8 115.7C158.8 115.7 161.9 114.2 165.2 111.2L169.4 115.9C165 120.4 160.9 122.2 154.8 122.2C149.3 122.2 144.7 120.4 141.4 117.1C138 113.8 136.1 109.1 136.1 103.6C136.1 98.4 138 93.9 141.3 90.5C144.6 87.2 149.3 85.1 154.8 85.1C160.9 85.1 165 86.9 169.4 91.2L165.2 96C161.9 92.9 158.7 91.5 154.8 91.5C151.7 91.5 148.8 92.8 146.6 94.8C144.5 96.9 143.1 100.1 143.1 103.5C143.1 107.2 144.4 110.2 146.3 112.1Z" fill="black"/>
<path d="M172.6 85.7H205.2V92.1H192.4V121.5H185.4V92.1H172.6V85.7Z" fill="black"/>
<path d="M230.9 103.4C232 102.1 232.6 100.7 232.6 98.9C232.6 96.8 232 95.3 231.1 94.2C230 92.8 228 92.2 225.7 92.2H216.2V105.4H226.2C228.1 105.5 229.7 104.8 230.9 103.4ZM235.8 108.2C233.2 110.6 230 112 226.2 112H216.2V121.5H209V85.7H226.3C230.6 85.7 234.3 87.5 236.9 90.5C238.7 92.8 239.9 95.5 239.9 98.9C239.8 102.6 238.2 105.9 235.8 108.2Z" fill="black"/>
<path d="M253.2 111.9C255.3 114.1 258.4 115.6 261.7 115.6C265 115.6 268.1 114.3 270.2 112C272.1 109.9 273.3 107.1 273.3 103.6C273.3 100 272.2 97 270.2 94.9C268.1 92.8 265.3 91.5 261.7 91.5C258.4 91.5 255.3 92.8 253.2 95.1C251.2 97.2 250 100.1 250 103.6C250 107 251.3 109.8 253.2 111.9ZM275.1 90.3C278.7 93.8 280.6 98.4 280.6 103.6C280.6 108.8 278.8 113.3 275.5 116.6C272.1 120.1 267.5 122.1 261.8 122.1C256.1 122.1 251.2 119.9 247.9 116.3C244.9 113.1 243 108.4 243 103.5C243 98.5 244.8 94.1 248 90.7C251.3 87.1 256.1 84.9 261.8 84.9C267.3 85 271.8 87 275.1 90.3Z" fill="black"/>
<path d="M311.2 77.2C310.5 79 309.1 80.4 307.8 81.4C306.2 82.6 304.1 83.2 302 83.2C300 83.2 298 82.6 296.4 81.4C295 80.4 293.6 79.1 292.9 77.2L297.7 74.7C298.1 75.4 298.6 76.1 299.2 76.6C300 77.4 300.9 77.7 302 77.7C303 77.7 304 77.4 304.8 76.7C305.5 76.2 306 75.5 306.4 74.6L311.2 77.2ZM292 110.3L311.2 85.7H317.6V121.5H310.8V96.8L291.5 121.5H285.2V85.7H292.1V110.3H292Z" fill="black"/>
<path d="M31.5 153.7L39.3 143.7H40.9V156H39.4V146L31.5 156H29.9V143.7H31.5V153.7Z" fill="#009944"/>
<path d="M70.8 143.7V156H69.2V150.1H61.8V156H60.1V143.7H61.8V148.6H69.2V143.7H70.8Z" fill="#009944"/>
<path d="M94.3 145.1L93.3 152C93.2 153 92.9001 153.8 92.2001 154.5H99.5001V145.1H94.3ZM101.1 143.7V154.6H102.4V158.6H101.1L100.8 156.1H90.8L90.6001 158.6H89.3V154.6C90.2 154.6 90.7001 154.2 91.1001 153.8C91.5001 153.3 91.7001 152.6 91.9001 151.7L93.0001 143.7H101.1Z" fill="#009944"/>
<path d="M132.2 143.7L126.8 153.9C126.5 154.5 126.1 155.1 125.6 155.5C125.1 155.9 124.5 156.1 123.8 156.1C123.4 156.1 123.1 156.1 122.7 156L122.9 154.7H123.3C123.8 154.7 124.1 154.7 124.5 154.4C124.7 154.2 124.9 154 125.1 153.7L125.3 153.3L119.8 143.7H121.8L126.2 151.6H126.3L130.3 143.7H132.2Z" fill="#009944"/>
<path d="M152.4 153.3C153.3 154.2 154.5 154.8 155.9 154.8C157.5 154.8 158.6 154.2 159.7 153.3L160.7 154.4C159.4 155.7 158 156.3 155.9 156.3C154 156.3 152.5 155.6 151.3 154.5C150.1 153.4 149.4 151.7 149.4 149.9C149.4 148.1 150.1 146.6 151.2 145.4C152.3 144.3 154 143.6 155.9 143.6C157.9 143.6 159.3 144.2 160.7 145.4L159.7 146.5C158.7 145.6 157.6 145 156 145C154.6 145 153.5 145.5 152.6 146.4C151.7 147.3 151.2 148.5 151.2 149.9C151.1 151.3 151.6 152.4 152.4 153.3Z" fill="#009944"/>
<path d="M178.8 143.7H190.1V145.1H185.3V156H183.6V145.1H178.8V143.7Z" fill="#009944"/>
<path d="M214.3 151C215.3 151 216.1 150.6 216.5 150.1C216.9 149.5 217.2 148.8 217.2 148.1C217.2 147.3 217 146.6 216.5 146.1C216 145.5 215.2 145.1 214.1 145.1H210.2V150.9H214.3V151ZM217.6 151.2C216.8 152 215.6 152.5 214.2 152.5H210.2V156H208.5V143.7H214.2C215.8 143.7 217.1 144.3 217.9 145.3C218.5 146 218.9 147 218.9 148.1C218.9 149.3 218.4 150.4 217.6 151.2Z" fill="#009944"/>
<path d="M239 153.7L246.8 143.7H248.4V156H246.8V146L239 156H237.4V143.7H239V153.7Z" fill="#009944"/>
<path d="M269.3 149.9C269.8 150.6 270.6 151.1 271.9 151.1H276V145.2H271.9C270.7 145.2 269.9 145.7 269.4 146.3C269 146.8 268.8 147.4 268.8 148.1C268.8 148.8 269 149.4 269.3 149.9ZM268.3 145.1C269.2 144.2 270.4 143.7 271.9 143.7H277.6V156H276V152.5H271.5L269.2 156H267.3L269.9 152.2C269.1 151.9 268.4 151.3 267.9 150.6C267.4 149.9 267.1 149.1 267.1 148.1C267.1 146.9 267.6 145.9 268.3 145.1Z" fill="#009944"/>
</g>
<defs>
<clipPath id="clip0">
<rect width="318" height="158" fill="white"/>
</clipPath>
</defs>
</svg>
