<svg xmlns="http://www.w3.org/2000/svg">
    <symbol id="logo-long" viewBox="0 0 398 60">
        <g>
            <path
                d="M120.9 17.3999C121.5 17.9999 122.3 18.3999 123.3 18.3999C124.4 18.3999 125.2 17.9999 125.9 17.3999L126.6 18.0999C125.7 18.9999 124.8 19.3999 123.4 19.3999C122.1 19.3999 121.1 18.8999 120.3 18.1999C119.5 17.3999 119 16.2999 119 15.0999C119 13.8999 119.5 12.7999 120.2 12.0999C121 11.2999 122.1 10.8999 123.4 10.8999C124.8 10.8999 125.7 11.2999 126.6 12.0999L125.9 12.7999C125.2 12.1999 124.5 11.7999 123.4 11.7999C122.5 11.7999 121.7 12.0999 121.1 12.6999C120.5 13.2999 120.1 14.0999 120.1 15.0999C120 15.9999 120.4 16.7999 120.9 17.3999Z"
                fill="#7DA4DD" />
            <path
                d="M136.1 17.4003C136.7 18.1003 137.5 18.4003 138.5 18.4003C139.4 18.4003 140.3 18.0003 140.9 17.4003C141.4 16.8003 141.8 16.0003 141.8 15.1003C141.8 14.1003 141.5 13.3003 140.9 12.8003C140.3 12.2003 139.5 11.8003 138.5 11.8003C137.6 11.8003 136.7 12.2003 136.1 12.8003C135.6 13.4003 135.2 14.2003 135.2 15.1003C135.3 16.0003 135.6 16.8003 136.1 17.4003ZM141.7 12.0003C142.5 12.8003 142.9 13.9003 142.9 15.1003C142.9 16.3003 142.5 17.3003 141.7 18.1003C140.9 18.9003 139.8 19.4003 138.5 19.4003C137.2 19.4003 136 18.9003 135.2 18.0003C134.5 17.2003 134.1 16.2003 134.1 15.1003C134.1 13.9003 134.5 12.9003 135.3 12.1003C136.1 11.3003 137.2 10.8003 138.5 10.8003C139.8 10.8003 140.9 11.2003 141.7 12.0003Z"
                fill="#7DA4DD" />
            <path
                d="M156.1 17.8001C156.5 17.5001 156.7 17.1001 156.7 16.5001C156.7 16.1001 156.6 15.8001 156.3 15.5001C156 15.2001 155.6 15.0001 155.1 15.0001H152.1V14.0001H154.8C155.3 14.0001 155.6 13.8001 155.8 13.6001C156 13.4001 156.1 13.1001 156.1 12.9001C156.1 12.5001 155.9 12.2001 155.6 12.0001C155.1 11.7001 154.3 11.6001 153.8 11.6001C153 11.6001 152.1 11.8001 151.2 12.1001L150.8 11.3001C151.7 10.8001 152.7 10.6001 153.8 10.6001C154.6 10.6001 155.7 10.8001 156.4 11.3001C156.9 11.6001 157.2 12.1001 157.2 12.8001C157.2 13.1001 157.1 13.4001 156.9 13.7001C156.8 13.9001 156.6 14.1001 156.3 14.3001V14.4001C156.7 14.6001 157 14.8001 157.3 15.1001C157.6 15.5001 157.8 15.9001 157.8 16.5001C157.8 17.3001 157.5 18.0001 156.8 18.5001C156.2 19.0001 155.3 19.3001 153.9 19.3001C152.5 19.3001 151.4 19.1001 150.4 18.5001L150.8 17.6001C151.9 18.1001 152.8 18.3001 153.9 18.3001C154.9 18.4001 155.6 18.2001 156.1 17.8001Z"
                fill="#7DA4DD" />
            <path
                d="M169.1 11.9003L168.4 16.6003C168.3 17.3003 168.1 17.8003 167.7 18.3003H172.7V12.0003H169.1V11.9003ZM173.8 10.9003V18.2003H174.7V20.9003H173.8L173.6 19.2003H166.8L166.6 20.9003H165.7V18.2003C166.3 18.2003 166.6 18.0003 166.9 17.6003C167.2 17.3003 167.3 16.8003 167.4 16.2003L168.2 10.8003H173.8V10.9003Z"
                fill="#7DA4DD" />
            <path
                d="M185 16.5999H189.1L187.2 11.9999H187L185 16.5999ZM187.8 10.8999L191.5 19.1999H190.3L189.6 17.5999H184.7L184 19.1999H182.8L186.5 10.8999H187.8Z"
                fill="#7DA4DD" />
            <path
                d="M205.4 15.7999C205.1 15.4999 204.7 15.2999 204.1 15.2999H200.8V18.2999H204C204.6 18.2999 205 18.0999 205.3 17.7999C205.5 17.4999 205.7 17.1999 205.7 16.7999C205.7 16.2999 205.6 15.9999 205.4 15.7999ZM204.9 12.1999C204.7 11.9999 204.4 11.8999 203.8 11.8999H200.8V14.2999H204C204.5 14.2999 204.8 14.0999 204.9 13.8999C205.1 13.6999 205.2 13.3999 205.2 13.0999C205.2 12.7999 205.1 12.3999 204.9 12.1999ZM199.7 19.1999V10.8999H204C204.7 10.8999 205.4 11.0999 205.8 11.5999C206.2 11.9999 206.3 12.3999 206.3 12.9999C206.3 13.2999 206.2 13.6999 206.1 13.8999C205.9 14.1999 205.7 14.3999 205.5 14.4999V14.5999C205.9 14.7999 206.2 14.9999 206.5 15.3999C206.8 15.7999 206.9 16.1999 206.9 16.6999C206.9 17.3999 206.6 17.9999 206.2 18.3999C205.7 18.8999 205 19.0999 204.2 19.0999H199.7V19.1999Z"
                fill="#7DA4DD" />
            <path
                d="M216.9 16.5999H221L219.1 11.9999H218.9L216.9 16.5999ZM219.7 10.8999L223.4 19.1999H222.2L221.5 17.5999H216.6L215.9 19.1999H214.7L218.4 10.8999H219.7Z"
                fill="#7DA4DD" />
            <path
                d="M232.9 15.0999C233.2 15.5999 233.8 15.8999 234.7 15.8999H237.5V11.8999H234.7C233.9 11.8999 233.3 12.1999 233 12.6999C232.7 12.9999 232.6 13.3999 232.6 13.8999C232.6 14.3999 232.7 14.7999 232.9 15.0999ZM232.2 11.8999C232.8 11.2999 233.6 10.8999 234.7 10.8999H238.6V19.1999H237.5V16.7999H234.4L232.8 19.1999H231.5L233.3 16.5999C232.7 16.3999 232.3 15.9999 231.9 15.4999C231.6 14.9999 231.4 14.4999 231.4 13.7999C231.4 13.0999 231.7 12.3999 232.2 11.8999Z"
                fill="#7DA4DD" />
            <path
                d="M260.5 17.3998C261.1 18.0998 261.9 18.3998 262.9 18.3998C263.8 18.3998 264.7 17.9998 265.3 17.3998C265.8 16.7998 266.2 15.9998 266.2 15.0998C266.2 14.0998 265.9 13.2998 265.3 12.7998C264.7 12.1998 263.9 11.7998 262.9 11.7998C262 11.7998 261.1 12.1998 260.5 12.7998C260 13.3998 259.6 14.1998 259.6 15.0998C259.6 15.9998 259.9 16.7998 260.5 17.3998ZM266 11.9998C266.8 12.7998 267.2 13.8998 267.2 15.0998C267.2 16.2998 266.8 17.2998 266 18.0998C265.2 18.8998 264.1 19.3998 262.8 19.3998C261.5 19.3998 260.3 18.8998 259.5 17.9998C258.8 17.1998 258.4 16.1998 258.4 15.0998C258.4 13.8998 258.8 12.8998 259.6 12.0998C260.4 11.2998 261.5 10.7998 262.8 10.7998C264.2 10.7998 265.3 11.1998 266 11.9998Z"
                fill="#7DA4DD" />
            <path
                d="M277.4 17.3999C278 17.9999 278.8 18.3999 279.8 18.3999C280.9 18.3999 281.7 17.9999 282.4 17.3999L283.1 18.0999C282.2 18.9999 281.3 19.3999 279.9 19.3999C278.6 19.3999 277.6 18.8999 276.8 18.1999C276 17.3999 275.5 16.2999 275.5 15.0999C275.5 13.8999 276 12.7999 276.7 12.0999C277.5 11.2999 278.6 10.8999 279.9 10.8999C281.3 10.8999 282.2 11.2999 283.1 12.0999L282.4 12.7999C281.7 12.1999 281 11.7999 279.9 11.7999C279 11.7999 278.2 12.0999 277.6 12.6999C277 13.2999 276.6 14.0999 276.6 15.0999C276.5 15.9999 276.8 16.7999 277.4 17.3999Z"
                fill="#7DA4DD" />
            <path
                d="M298.5 10.8999V19.1999H297.4V15.1999H292.4V19.1999H291.2V10.8999H292.4V14.2999H297.4V10.8999H298.5Z"
                fill="#7DA4DD" />
            <path
                d="M308.9 17.3998C309.5 18.0998 310.3 18.3998 311.3 18.3998C312.2 18.3998 313.1 17.9998 313.7 17.3998C314.2 16.7998 314.6 15.9998 314.6 15.0998C314.6 14.0998 314.3 13.2998 313.7 12.7998C313.1 12.1998 312.3 11.7998 311.3 11.7998C310.4 11.7998 309.5 12.1998 308.9 12.7998C308.4 13.3998 308 14.1998 308 15.0998C308 15.9998 308.4 16.7998 308.9 17.3998ZM314.4 11.9998C315.2 12.7998 315.6 13.8998 315.6 15.0998C315.6 16.2998 315.2 17.2998 314.4 18.0998C313.6 18.8998 312.5 19.3998 311.2 19.3998C309.9 19.3998 308.7 18.8998 307.9 17.9998C307.2 17.1998 306.8 16.1998 306.8 15.0998C306.8 13.8998 307.2 12.8998 308 12.0998C308.8 11.2998 309.9 10.7998 311.2 10.7998C312.6 10.7998 313.7 11.1998 314.4 11.9998Z"
                fill="#7DA4DD" />
            <path
                d="M329.8 15.7999C329.5 15.4999 329.1 15.2999 328.5 15.2999H325.2V18.2999H328.4C329 18.2999 329.4 18.0999 329.7 17.7999C329.9 17.4999 330.1 17.1999 330.1 16.7999C330.1 16.2999 330 15.9999 329.8 15.7999ZM329.3 12.1999C329.1 11.9999 328.8 11.8999 328.2 11.8999H325.2V14.2999H328.4C328.9 14.2999 329.2 14.0999 329.3 13.8999C329.5 13.6999 329.6 13.3999 329.6 13.0999C329.6 12.7999 329.5 12.3999 329.3 12.1999ZM324.1 19.1999V10.8999H328.4C329.1 10.8999 329.8 11.0999 330.2 11.5999C330.6 11.9999 330.7 12.3999 330.7 12.9999C330.7 13.2999 330.6 13.6999 330.5 13.8999C330.3 14.1999 330.1 14.3999 329.9 14.4999V14.5999C330.3 14.7999 330.6 14.9999 330.9 15.3999C331.2 15.7999 331.3 16.1999 331.3 16.6999C331.3 17.3999 331 17.9999 330.6 18.3999C330.1 18.8999 329.4 19.0999 328.6 19.0999H324.1V19.1999Z"
                fill="#7DA4DD" />
            <path
                d="M348.7 19.1999H347.6V10.8999H348.7V19.1999ZM345.1 14.8999C344.8 14.4999 344.3 14.2999 343.5 14.2999H340.9V18.2999H343.6C344.3 18.2999 344.7 18.0999 345.1 17.6999C345.5 17.3999 345.7 16.7999 345.7 16.1999C345.6 15.6999 345.4 15.1999 345.1 14.8999ZM345.8 18.3999C345.2 18.9999 344.5 19.2999 343.5 19.2999H339.7V10.9999H340.8V13.2999H343.5C344.5 13.2999 345.3 13.6999 345.9 14.2999C346.4 14.7999 346.7 15.4999 346.7 16.2999C346.7 17.0999 346.4 17.7999 345.8 18.3999Z"
                fill="#7DA4DD" />
            <path d="M64.7002 1.8999L98.7002 11.1999V23.9999L64.7002 14.6999V1.8999Z" fill="#7DA4DD" />
            <path d="M64.7999 2L0.399902 19.4V23.5L64.7999 6.10001V2Z" fill="#7DA4DD" />
            <path d="M64.7002 18.7998L98.7002 28.0998V40.8998L64.7002 31.5998V18.7998Z" fill="#7DA4DD" />
            <path d="M64.7999 18.8999L0.399902 36.2999V40.3999L64.7999 22.9999V18.8999Z" fill="#7DA4DD" />
            <path d="M64.7002 35.7002L98.7002 45.0002V57.8002L64.7002 48.5002V35.7002Z" fill="#7DA4DD" />
            <path d="M64.7999 35.7998L0.399902 53.1998V57.2998L64.7999 39.8998V35.7998Z" fill="#7DA4DD" />
            <path
                d="M138.6 37.4V25.4H144.8V37.4H147.5C148.5 37.4 149.1 37.2 149.6 37C149.9 36.8 150.2 36.5 150.4 36L153.5 29.6C154.2 28.2 155.4 26.8 156.6 26.1C157.8 25.4 159.4 25 161.1 25C162.4 25 163.5 25.1 165 25.4L164.4 30.7H162.4C161.6 30.7 160.8 30.8 160.2 31.1C159.7 31.4 159.3 31.8 159 32.3L156 38.3C155.6 38.9 155.2 39.6 154.8 40L165.4 57H158L149.6 42.8C149.1 43 148.5 43 147.9 43H144.9V57H138.7V43H135.7C135.1 43 134.5 42.9 134 42.8L125.6 57H118.1L128.7 40C128.3 39.6 127.9 38.9 127.5 38.3L124.5 32.3C124.2 31.8 123.9 31.4 123.3 31.1C122.7 30.7 121.9 30.7 121.1 30.7H119.1L118.5 25.4C119.9 25.1 121.1 25 122.4 25C124.1 25 125.7 25.4 126.9 26.1C128.2 26.8 129.3 28.2 130 29.6L133.1 36C133.3 36.5 133.6 36.8 133.9 37C134.4 37.3 135.1 37.4 136 37.4H138.6Z"
                fill="white" />
            <path d="M174.5 47.2999L191.6 25.3999H197.3V57.1999H191.2V35.1999L174 57.1999H168.4V25.3999H174.5V47.2999Z"
                fill="white" />
            <path
                d="M233.3 25.3999V57.1999H227.1V31.1999H216L213.4 50.0999C213.1 52.4999 212.2 54.2999 210.9 55.5999C209.5 56.8999 207.6 57.4999 205.2 57.4999C203.2 57.4999 201.9 57.2999 199.9 56.4999L201.3 51.1999C202.6 51.5999 203.3 51.6999 204.3 51.6999C205.3 51.6999 206.1 51.3999 206.6 50.9999C207 50.5999 207.3 49.7999 207.5 48.6999L210.7 25.5999H233.3V25.3999Z"
                fill="white" />
            <path
                d="M246.1 48.7998C248.2 50.8998 250.9 51.9998 253.7 51.9998C257.2 51.9998 260.1 50.6998 263 47.9998L266.8 52.1998C262.8 56.1998 259.2 57.7998 253.7 57.7998C248.8 57.7998 244.7 56.1998 241.7 53.1998C238.7 50.1998 236.9 46.0998 236.9 41.1998C236.9 36.4998 238.6 32.5998 241.6 29.5998C244.6 26.5998 248.7 24.7998 253.7 24.7998C259.2 24.7998 262.8 26.3998 266.8 30.1998L263 34.4998C260 31.6998 257.2 30.4998 253.7 30.4998C250.9 30.4998 248.3 31.5998 246.4 33.4998C244.5 35.3998 243.3 38.1998 243.3 41.1998C243.2 44.4998 244.4 47.0998 246.1 48.7998Z"
                fill="white" />
            <path d="M269 25.3999H298.1V31.0999H286.6V57.1999H280.5V31.0999H269V25.3999Z" fill="white" />
            <path
                d="M320.4 41.0999C321.4 39.9999 321.9 38.6999 321.9 37.0999C321.9 35.1999 321.4 33.8999 320.5 32.8999C319.5 31.6999 317.7 31.1999 315.7 31.1999H307.2V42.9999H316.1C317.9 42.9999 319.4 42.2999 320.4 41.0999ZM324.8 45.3999C322.5 47.5999 319.6 48.7999 316.2 48.7999H307.3V57.1999H300.8V25.3999H316.2C320 25.3999 323.3 26.9999 325.6 29.6999C327.2 31.7999 328.3 34.0999 328.3 37.1999C328.4 40.3999 326.9 43.2999 324.8 45.3999Z"
                fill="white" />
            <path
                d="M339.8 48.7C341.7 50.7 344.4 52 347.4 52C350.4 52 353.1 50.8 355 48.8C356.7 46.9 357.8 44.5 357.8 41.3C357.8 38.1 356.8 35.5 355 33.6C353.1 31.7 350.6 30.6 347.4 30.6C344.4 30.6 341.7 31.7 339.8 33.8C338.1 35.7 336.9 38.2 336.9 41.4C336.9 44.3 338 46.8 339.8 48.7ZM359.3 29.5C362.5 32.6 364.2 36.7 364.2 41.3C364.2 45.9 362.6 49.9 359.6 52.8C356.6 55.9 352.5 57.7 347.4 57.7C342.3 57.7 337.9 55.7 335 52.6C332.3 49.8 330.6 45.6 330.6 41.3C330.6 36.9 332.2 32.9 335 30C338 26.8 342.3 24.9 347.3 24.9C352.3 24.8 356.4 26.6 359.3 29.5Z"
                fill="white" />
            <path
                d="M391 17.8001C390.4 19.4001 389.1 20.6001 387.9 21.5001C386.5 22.6001 384.6 23.1001 382.7 23.1001C381 23.1001 379.2 22.6001 377.7 21.5001C376.5 20.7001 375.2 19.4001 374.6 17.8001L378.9 15.6001C379.3 16.2001 379.7 16.8001 380.2 17.3001C380.9 18.0001 381.7 18.3001 382.7 18.3001C383.6 18.3001 384.4 18.0001 385.2 17.5001C385.8 17.1001 386.3 16.4001 386.6 15.6001L391 17.8001ZM373.8 47.3001L390.9 25.4001H396.6V57.2001H390.5V35.3001L373.3 57.2001H367.6V25.4001H373.7V47.3001H373.8Z"
                fill="white" />
        </g>
    </symbol>

    <symbol id="logo-dev" viewBox="0 0 318 158">
        <g clip-path="url(#clip0)">
            <path d="M245.3 0.300003L284 10.8V25.4L245.3 14.9V0.300003Z" fill="#A90F3D" />
            <path d="M245.4 0.399994L172.2 20.2V24.9L245.4 5V0.399994Z" fill="#A90F3D" />
            <path d="M245.3 19.5L284 30.1V44.6L245.3 34.1V19.5Z" fill="#A90F3D" />
            <path d="M245.4 19.6L172.2 39.5V44.1L245.4 24.2V19.6Z" fill="#A90F3D" />
            <path d="M245.3 38.7L284 49.3V63.9L245.3 53.3V38.7Z" fill="#A90F3D" />
            <path d="M245.4 38.8L172.2 58.7V63.3L245.4 43.5V38.8Z" fill="#A90F3D" />
            <path
                d="M23.5 99.4V85.7H30.6V99.4H33.7C34.8 99.4 35.6 99.2 36.1 98.9C36.5 98.7 36.8 98.3 37 97.8L40.5 90.6C41.3 89 42.6 87.4 44.1 86.6C45.5 85.8 47.2 85.4 49.2 85.4C50.6 85.4 52 85.5 53.6 85.8L52.9 91.9H50.7C49.7 91.9 48.9 92 48.2 92.4C47.6 92.7 47.2 93.2 46.9 93.7L43.5 100.6C43.1 101.3 42.6 102.1 42.2 102.6L54.3 122H45.7L36.1 105.8C35.5 106 34.8 106 34.1 106H30.7V121.9H23.6V106H20.2C19.5 106 18.8 105.9 18.2 105.8L8.60001 122H0L12.1 102.6C11.7 102.1 11.2 101.3 10.8 100.6L7.39999 93.7C7.09999 93.2 6.70001 92.7 6.10001 92.4C5.40001 92 4.50001 91.9 3.60001 91.9H1.39999L0.699997 85.8C2.3 85.5 3.70001 85.4 5.10001 85.4C7.10001 85.4 8.8 85.8 10.2 86.6C11.6 87.4 13 89 13.8 90.6L17.3 97.8C17.5 98.3 17.8 98.7 18.2 98.9C18.7 99.2 19.5 99.4 20.6 99.4H23.5Z"
                fill="black" />
            <path d="M64.4 110.6L83.9 85.7H90.5V121.9H83.5V96.9L63.9 121.9H57.4V85.7H64.4V110.6Z" fill="black" />
            <path
                d="M131.5 85.7V121.9H124.4V92.2H111.7L108.7 113.7C108.3 116.4 107.4 118.5 105.9 119.9C104.3 121.3 102.1 122.1 99.4001 122.1C97.2001 122.1 95.7 121.9 93.3 121L94.9001 114.9C96.4001 115.3 97.1 115.4 98.3 115.4C99.4 115.4 100.4 115.1 100.9 114.6C101.4 114.1 101.7 113.2 101.9 111.9L105.5 85.6H131.5V85.7Z"
                fill="black" />
            <path
                d="M146.1 112.3C148.5 114.7 151.5 115.9 154.7 115.9C158.7 115.9 161.9 114.4 165.3 111.3L169.6 116.1C165.1 120.7 160.9 122.5 154.7 122.5C149.1 122.5 144.4 120.6 141.1 117.3C137.7 113.9 135.7 109.2 135.7 103.7C135.7 98.4 137.6 93.9 141 90.4C144.4 87 149.1 85 154.8 85C161 85 165.2 86.8 169.7 91.2L165.4 96.1C162 93 158.8 91.6 154.8 91.6C151.6 91.6 148.6 92.9 146.5 95C144.4 97.1 142.9 100.4 142.9 103.8C142.8 107.4 144.1 110.4 146.1 112.3Z"
                fill="black" />
            <path d="M172.2 85.7H205.3V92.2H192.3V121.9H185.2V92.2H172.2V85.7Z" fill="black" />
            <path
                d="M230.8 103.6C231.9 102.3 232.6 100.8 232.6 99.1C232.6 97 232 95.5 231 94.3C229.9 92.9 227.9 92.3 225.5 92.3H215.8V105.7H225.9C227.9 105.7 229.5 105 230.8 103.6ZM235.8 108.4C233.2 110.9 229.9 112.3 226 112.3H215.8V121.9H208.4V85.7H226C230.3 85.7 234.1 87.5 236.7 90.6C238.6 93 239.8 95.7 239.8 99.1C239.8 102.7 238.2 106.1 235.8 108.4Z"
                fill="black" />
            <path
                d="M252.8 112.2C254.9 114.4 258 115.9 261.5 115.9C264.9 115.9 268 114.6 270.1 112.2C272 110.1 273.3 107.3 273.3 103.7C273.3 100.1 272.2 97.1 270.2 94.9C268.1 92.7 265.2 91.5 261.5 91.5C258.1 91.5 255 92.8 252.8 95.1C250.8 97.2 249.5 100.1 249.5 103.7C249.6 107.2 250.8 110 252.8 112.2ZM275.1 90.3C278.7 93.9 280.7 98.5 280.7 103.8C280.7 109.1 278.8 113.6 275.5 117C272.1 120.6 267.4 122.6 261.6 122.6C255.8 122.6 250.8 120.4 247.5 116.7C244.4 113.5 242.5 108.7 242.5 103.8C242.5 98.7 244.4 94.3 247.6 90.9C251 87.3 255.9 85 261.7 85C267.1 85 271.7 87 275.1 90.3Z"
                fill="black" />
            <path
                d="M311.2 77C310.5 78.9 309.1 80.2 307.7 81.2C306.1 82.4 303.9 83.1 301.8 83.1C299.8 83.1 297.8 82.5 296.1 81.2C294.7 80.2 293.3 78.8 292.5 77L297.4 74.5C297.8 75.2 298.3 75.9 298.9 76.4C299.7 77.2 300.6 77.5 301.8 77.5C302.8 77.5 303.8 77.2 304.6 76.5C305.3 76 305.8 75.3 306.2 74.4L311.2 77ZM291.6 110.6L311.1 85.7H317.6V121.9H310.7V96.9L291.1 121.9H284.6V85.7H291.6V110.6Z"
                fill="black" />
            <path
                d="M30.9001 145.8L29.9001 152.8C29.8001 153.8 29.4 154.7 28.8 155.3H36.2001V145.8H30.9001ZM37.9001 144.3V155.2H39.2001V159.2H37.8L37.5001 156.7H27.3L27.1001 159.2H25.8V155.2C26.7 155.2 27.2001 154.8 27.6001 154.4C28.0001 153.9 28.2001 153.2 28.4001 152.3L29.5001 144.3H37.9001Z"
                fill="#A90F3D" />
            <path d="M52.4 144.3H61.9V145.9H54.1V149.5H61.1V151H54.1V155.3H62.2V156.8H52.4V144.3Z" fill="#A90F3D" />
            <path
                d="M84 151.6C83.6 151.1 83 150.8 82.1 150.8H77.2V155.3H82C82.9 155.3 83.4 155 83.9 154.6C84.3 154.2 84.5 153.7 84.5 153C84.5 152.4 84.3 152 84 151.6ZM83.2 146.3C82.9 146 82.4 145.8 81.5 145.8H77.1V149.4H81.9C82.6 149.4 83 149.2 83.3 148.8C83.6 148.4 83.8 148 83.8 147.6C83.7 147.1 83.5 146.6 83.2 146.3ZM75.5 156.8V144.4H81.9C83 144.4 84 144.7 84.6 145.5C85.1 146 85.4 146.7 85.4 147.6C85.4 148.1 85.3 148.6 85.1 149C84.9 149.4 84.6 149.7 84.1 150V150.1C84.7 150.3 85.2 150.8 85.5 151.3C85.9 151.9 86.1 152.5 86.1 153.2C86.1 154.3 85.7 155.2 85 155.8C84.3 156.5 83.2 156.9 82.1 156.9H75.5V156.8Z"
                fill="#A90F3D" />
            <path d="M99.6 144.3H109.1V145.9H101.3V149.5H108.3V151H101.3V155.3H109.4V156.8H99.6V144.3Z"
                fill="#A90F3D" />
            <path
                d="M135.3 144.3V156.7H133.6V145.8H128.1L126.9 154.2C126.8 155 126.5 155.6 126 156.1C125.5 156.6 124.8 156.8 124 156.8C123.3 156.8 122.9 156.7 122.3 156.6L122.6 155.3C123 155.4 123.3 155.4 123.6 155.4C124.1 155.4 124.5 155.3 124.8 155C125.1 154.7 125.3 154.3 125.4 153.7L126.7 144.4H135.3V144.3Z"
                fill="#A90F3D" />
            <path
                d="M151.6 154C152.5 155 153.8 155.5 155.2 155.5C156.6 155.5 157.8 155 158.7 154C159.5 153.1 160 152 160 150.5C160 149.1 159.5 147.9 158.7 147C157.8 146.1 156.6 145.5 155.2 145.5C153.8 145.5 152.5 146.1 151.6 147C150.8 147.9 150.3 149 150.3 150.5C150.3 152 150.8 153.1 151.6 154ZM159.9 146C161.1 147.2 161.7 148.8 161.7 150.6C161.7 152.4 161.1 153.9 159.9 155.1C158.7 156.3 157.1 157 155.1 157C153.1 157 151.4 156.2 150.2 155C149.1 153.8 148.5 152.3 148.5 150.6C148.5 148.9 149.1 147.3 150.2 146.2C151.4 145 153 144.2 155 144.2C157.1 144.1 158.7 144.8 159.9 146Z"
                fill="#A90F3D" />
            <path d="M185.8 144.3V156.8H184.1V145.8H176.8V156.8H175.1V144.3H185.8Z" fill="#A90F3D" />
            <path
                d="M201.8 144.3L206.5 151L211.2 144.3H213.2V156.8H211.6V146.6H211.4L206.7 153.3H206.2L201.5 146.6H201.3V156.8H199.8V144.3H201.8Z"
                fill="#A90F3D" />
            <path d="M227.2 144.3H236.7V145.9H228.9V149.5H235.8V151H228.9V155.3H237V156.8H227.2V144.3Z"
                fill="#A90F3D" />
            <path d="M261.1 144.3V156.8H259.4V150.8H251.9V156.8H250.2V144.3H251.9V149.3H259.4V144.3H261.1Z"
                fill="#A90F3D" />
            <path d="M274.1 144.3H285.6V145.8H280.7V156.8H279.1V145.8H274.1V144.3Z" fill="#A90F3D" />
        </g>
        <defs>
            <clipPath id="clip0">
                <rect width="318" height="158" fill="white" />
            </clipPath>
        </defs>
    </symbol>
    <symbol id="logo-ind" viewBox="0 0 318 158">
        <g clip-path="url(#clip0)">
            <path d="M241.6 -0.100006L279.7 10.4V24.8L241.6 14.4V-0.100006Z" fill="#009944" />
            <path d="M241.7 0L169.6 19.7V24.3L241.7 4.60001V0Z" fill="#009944" />
            <path d="M241.6 19L279.7 29.4V43.9L241.6 33.4V19Z" fill="#009944" />
            <path d="M241.7 19L169.6 38.7V43.3L241.7 23.7V19Z" fill="#009944" />
            <path d="M241.6 38L279.7 48.5V62.9L241.6 52.5V38Z" fill="#009944" />
            <path d="M241.7 38.1L169.6 57.8V62.4L241.7 42.7V38.1Z" fill="#009944" />
            <path
                d="M23.8 99.2V85.7H30.8V99.2H33.8C34.9 99.2 35.6 99 36.2 98.7C36.6 98.5 36.9 98.1 37.1 97.6L40.5 90.4C41.3 88.8 42.6 87.2 44 86.5C45.4 85.7 47.1 85.3 49 85.3C50.4 85.3 51.7 85.4 53.3 85.7L52.6 91.7H50.4C49.5 91.7 48.6 91.8 47.9 92.2C47.3 92.5 46.9 93 46.6 93.5L43.2 100.3C42.8 101 42.3 101.8 41.9 102.3L53.8 121.4H45.4L36 105.4C35.4 105.6 34.8 105.6 34 105.6H30.6V121.3H23.6V105.6H20.2C19.5 105.6 18.8 105.5 18.2 105.4L8.80003 121.4H0.400024L12.3 102.3C11.9 101.8 11.4 101 11 100.3L7.60004 93.5C7.30004 93 6.90003 92.5 6.30003 92.2C5.60003 91.8 4.80003 91.7 3.80003 91.7H1.60004L0.900024 85.7C2.50002 85.4 3.80003 85.3 5.20003 85.3C7.20003 85.3 8.90003 85.7 10.2 86.5C11.6 87.3 12.9 88.8 13.7 90.4L17.1 97.6C17.3 98.1 17.6 98.5 18 98.7C18.5 99 19.3 99.2 20.4 99.2H23.8Z"
                fill="black" />
            <path d="M64.7 110.3L83.9 85.7H90.3V121.5H83.5V96.8L64.2 121.5H57.9V85.7H64.7V110.3Z" fill="black" />
            <path
                d="M131.3 85.7V121.5H124.4V92.2H111.9L109 113.5C108.6 116.2 107.7 118.3 106.2 119.6C104.6 121 102.5 121.7 99.8 121.7C97.6 121.7 96.1 121.5 93.8 120.6L95.3 114.6C96.8 115 97.5001 115.1 98.7001 115.1C99.8001 115.1 100.7 114.8 101.3 114.3C101.8 113.8 102.1 112.9 102.3 111.7L105.9 85.7H131.3Z"
                fill="black" />
            <path
                d="M146.3 112.1C148.6 114.4 151.6 115.7 154.8 115.7C158.8 115.7 161.9 114.2 165.2 111.2L169.4 115.9C165 120.4 160.9 122.2 154.8 122.2C149.3 122.2 144.7 120.4 141.4 117.1C138 113.8 136.1 109.1 136.1 103.6C136.1 98.4 138 93.9 141.3 90.5C144.6 87.2 149.3 85.1 154.8 85.1C160.9 85.1 165 86.9 169.4 91.2L165.2 96C161.9 92.9 158.7 91.5 154.8 91.5C151.7 91.5 148.8 92.8 146.6 94.8C144.5 96.9 143.1 100.1 143.1 103.5C143.1 107.2 144.4 110.2 146.3 112.1Z"
                fill="black" />
            <path d="M172.6 85.7H205.2V92.1H192.4V121.5H185.4V92.1H172.6V85.7Z" fill="black" />
            <path
                d="M230.9 103.4C232 102.1 232.6 100.7 232.6 98.9C232.6 96.8 232 95.3 231.1 94.2C230 92.8 228 92.2 225.7 92.2H216.2V105.4H226.2C228.1 105.5 229.7 104.8 230.9 103.4ZM235.8 108.2C233.2 110.6 230 112 226.2 112H216.2V121.5H209V85.7H226.3C230.6 85.7 234.3 87.5 236.9 90.5C238.7 92.8 239.9 95.5 239.9 98.9C239.8 102.6 238.2 105.9 235.8 108.2Z"
                fill="black" />
            <path
                d="M253.2 111.9C255.3 114.1 258.4 115.6 261.7 115.6C265 115.6 268.1 114.3 270.2 112C272.1 109.9 273.3 107.1 273.3 103.6C273.3 100 272.2 97 270.2 94.9C268.1 92.8 265.3 91.5 261.7 91.5C258.4 91.5 255.3 92.8 253.2 95.1C251.2 97.2 250 100.1 250 103.6C250 107 251.3 109.8 253.2 111.9ZM275.1 90.3C278.7 93.8 280.6 98.4 280.6 103.6C280.6 108.8 278.8 113.3 275.5 116.6C272.1 120.1 267.5 122.1 261.8 122.1C256.1 122.1 251.2 119.9 247.9 116.3C244.9 113.1 243 108.4 243 103.5C243 98.5 244.8 94.1 248 90.7C251.3 87.1 256.1 84.9 261.8 84.9C267.3 85 271.8 87 275.1 90.3Z"
                fill="black" />
            <path
                d="M311.2 77.2C310.5 79 309.1 80.4 307.8 81.4C306.2 82.6 304.1 83.2 302 83.2C300 83.2 298 82.6 296.4 81.4C295 80.4 293.6 79.1 292.9 77.2L297.7 74.7C298.1 75.4 298.6 76.1 299.2 76.6C300 77.4 300.9 77.7 302 77.7C303 77.7 304 77.4 304.8 76.7C305.5 76.2 306 75.5 306.4 74.6L311.2 77.2ZM292 110.3L311.2 85.7H317.6V121.5H310.8V96.8L291.5 121.5H285.2V85.7H292.1V110.3H292Z"
                fill="black" />
            <path d="M31.5 153.7L39.3 143.7H40.9V156H39.4V146L31.5 156H29.9V143.7H31.5V153.7Z" fill="#009944" />
            <path d="M70.8 143.7V156H69.2V150.1H61.8V156H60.1V143.7H61.8V148.6H69.2V143.7H70.8Z" fill="#009944" />
            <path
                d="M94.3 145.1L93.3 152C93.2 153 92.9001 153.8 92.2001 154.5H99.5001V145.1H94.3ZM101.1 143.7V154.6H102.4V158.6H101.1L100.8 156.1H90.8L90.6001 158.6H89.3V154.6C90.2 154.6 90.7001 154.2 91.1001 153.8C91.5001 153.3 91.7001 152.6 91.9001 151.7L93.0001 143.7H101.1Z"
                fill="#009944" />
            <path
                d="M132.2 143.7L126.8 153.9C126.5 154.5 126.1 155.1 125.6 155.5C125.1 155.9 124.5 156.1 123.8 156.1C123.4 156.1 123.1 156.1 122.7 156L122.9 154.7H123.3C123.8 154.7 124.1 154.7 124.5 154.4C124.7 154.2 124.9 154 125.1 153.7L125.3 153.3L119.8 143.7H121.8L126.2 151.6H126.3L130.3 143.7H132.2Z"
                fill="#009944" />
            <path
                d="M152.4 153.3C153.3 154.2 154.5 154.8 155.9 154.8C157.5 154.8 158.6 154.2 159.7 153.3L160.7 154.4C159.4 155.7 158 156.3 155.9 156.3C154 156.3 152.5 155.6 151.3 154.5C150.1 153.4 149.4 151.7 149.4 149.9C149.4 148.1 150.1 146.6 151.2 145.4C152.3 144.3 154 143.6 155.9 143.6C157.9 143.6 159.3 144.2 160.7 145.4L159.7 146.5C158.7 145.6 157.6 145 156 145C154.6 145 153.5 145.5 152.6 146.4C151.7 147.3 151.2 148.5 151.2 149.9C151.1 151.3 151.6 152.4 152.4 153.3Z"
                fill="#009944" />
            <path d="M178.8 143.7H190.1V145.1H185.3V156H183.6V145.1H178.8V143.7Z" fill="#009944" />
            <path
                d="M214.3 151C215.3 151 216.1 150.6 216.5 150.1C216.9 149.5 217.2 148.8 217.2 148.1C217.2 147.3 217 146.6 216.5 146.1C216 145.5 215.2 145.1 214.1 145.1H210.2V150.9H214.3V151ZM217.6 151.2C216.8 152 215.6 152.5 214.2 152.5H210.2V156H208.5V143.7H214.2C215.8 143.7 217.1 144.3 217.9 145.3C218.5 146 218.9 147 218.9 148.1C218.9 149.3 218.4 150.4 217.6 151.2Z"
                fill="#009944" />
            <path d="M239 153.7L246.8 143.7H248.4V156H246.8V146L239 156H237.4V143.7H239V153.7Z" fill="#009944" />
            <path
                d="M269.3 149.9C269.8 150.6 270.6 151.1 271.9 151.1H276V145.2H271.9C270.7 145.2 269.9 145.7 269.4 146.3C269 146.8 268.8 147.4 268.8 148.1C268.8 148.8 269 149.4 269.3 149.9ZM268.3 145.1C269.2 144.2 270.4 143.7 271.9 143.7H277.6V156H276V152.5H271.5L269.2 156H267.3L269.9 152.2C269.1 151.9 268.4 151.3 267.9 150.6C267.4 149.9 267.1 149.1 267.1 148.1C267.1 146.9 267.6 145.9 268.3 145.1Z"
                fill="#009944" />
        </g>
        <defs>
            <clipPath id="clip0">
                <rect width="318" height="158" fill="white" />
            </clipPath>
        </defs>
    </symbol>

    <symbol id="logo-etl" viewBox="0 0 318 163">
        <g>
            <path
                d="M136.439 151.982V146.118H139.372V151.982H140.594C141.083 151.982 141.327 151.982 141.572 151.737C141.816 151.737 141.816 151.493 142.061 151.249L143.527 148.072C143.772 147.339 144.505 146.606 144.994 146.362C145.482 146.118 146.216 145.873 147.193 145.873C147.927 145.873 148.416 145.873 149.149 146.118L148.904 148.805H147.927C147.438 148.805 147.193 148.805 146.949 149.05C146.705 149.294 146.46 149.294 146.46 149.538L144.994 152.471C144.749 152.715 144.505 153.204 144.505 153.204L149.638 161.511H145.971L141.816 154.67C141.572 154.67 141.327 154.67 141.083 154.67H139.616V161.511H136.683V154.67H135.217C134.972 154.67 134.728 154.67 134.484 154.67L130.328 161.511H126.662L131.795 153.204C131.55 152.959 131.306 152.715 131.306 152.471L129.84 149.538C129.595 149.294 129.595 149.05 129.351 149.05C129.106 148.805 128.617 148.805 128.373 148.805H127.395L127.151 146.118C127.884 145.873 128.373 145.873 129.106 145.873C129.84 145.873 130.817 146.118 131.306 146.362C132.039 146.606 132.528 147.339 132.773 148.072L134.239 151.249C134.239 151.493 134.484 151.737 134.728 151.737C134.972 151.982 135.217 151.982 135.706 151.982H136.439Z"
                fill="#2F2482" />
            <path
                d="M136.439 151.982V146.118H139.372V151.982H140.594C141.083 151.982 141.327 151.982 141.572 151.737C141.816 151.737 141.816 151.493 142.061 151.249L143.527 148.072C143.772 147.339 144.505 146.606 144.994 146.362C145.482 146.118 146.216 145.873 147.193 145.873C147.927 145.873 148.416 145.873 149.149 146.118L148.904 148.805H147.927C147.438 148.805 147.193 148.805 146.949 149.05C146.705 149.294 146.46 149.294 146.46 149.538L144.994 152.471C144.749 152.715 144.505 153.204 144.505 153.204L149.638 161.511H145.971L141.816 154.67C141.572 154.67 141.327 154.67 141.083 154.67H139.616V161.511H136.683V154.67H135.217C134.972 154.67 134.728 154.67 134.484 154.67L130.328 161.511H126.662L131.795 153.204C131.55 152.959 131.306 152.715 131.306 152.471L129.84 149.538C129.595 149.294 129.595 149.05 129.351 149.05C129.106 148.805 128.617 148.805 128.373 148.805H127.395L127.151 146.118C127.884 145.873 128.373 145.873 129.106 145.873C129.84 145.873 130.817 146.118 131.306 146.362C132.039 146.606 132.528 147.339 132.773 148.072L134.239 151.249C134.239 151.493 134.484 151.737 134.728 151.737C134.972 151.982 135.217 151.982 135.706 151.982H136.439V151.982Z"
                stroke="white" stroke-width="0.216" stroke-miterlimit="22.9256" fill="#2F2482" />
            <path
                d="M157.459 156.625L165.769 146.118H168.702V161.511H165.525V150.76L157.215 161.511H154.526V146.118H157.459V156.625Z"
                fill="#2F2482" />
            <path
                d="M157.459 156.625L165.769 146.118H168.702V161.511H165.525V150.76L157.215 161.511H154.526V146.118H157.459V156.625Z"
                stroke="white" stroke-width="0.216" stroke-miterlimit="22.9256" fill="#2F2482" />
            <path
                d="M189.723 146.118V161.511H186.79V148.806H181.412L180.19 158.091C179.946 159.312 179.701 160.045 178.968 160.778C178.235 161.511 177.257 161.756 176.28 161.756C175.302 161.756 174.569 161.756 173.591 161.267L174.324 158.579C175.057 158.824 175.302 158.824 175.791 158.824C176.28 158.824 176.768 158.579 177.013 158.579C177.257 158.335 177.257 158.091 177.502 157.358L178.968 146.118H189.723Z"
                fill="#2F2482" />
            <path
                d="M189.723 146.118V161.511H186.79V148.806H181.412L180.19 158.091C179.946 159.312 179.701 160.045 178.968 160.778C178.235 161.511 177.257 161.756 176.28 161.756C175.302 161.756 174.569 161.756 173.591 161.267L174.324 158.579C175.057 158.824 175.302 158.824 175.791 158.824C176.28 158.824 176.768 158.579 177.013 158.579C177.257 158.335 177.257 158.091 177.502 157.358L178.968 146.118H189.723V146.118Z"
                stroke="white" stroke-width="0.216" stroke-miterlimit="22.9256" fill="#2F2482" />
            <path
                d="M199.499 157.357C200.477 158.335 201.944 158.824 203.166 158.824C204.877 158.824 206.343 158.091 207.81 156.869L209.765 158.824C207.81 160.778 206.099 161.511 203.41 161.511C200.966 161.511 199.011 160.778 197.544 159.312C196.078 157.846 195.1 155.891 195.1 153.448C195.1 151.249 195.833 149.294 197.3 147.828C198.766 146.362 200.722 145.385 203.166 145.385C205.854 145.385 207.565 146.118 209.521 148.072L207.565 150.272C206.099 149.05 204.632 148.317 202.921 148.317C201.455 148.317 200.233 148.805 199.255 149.783C198.277 150.76 197.789 151.982 197.789 153.448C198.033 155.403 198.766 156.624 199.499 157.357Z"
                fill="#2F2482" />
            <path
                d="M199.499 157.357C200.477 158.335 201.944 158.824 203.166 158.824C204.877 158.824 206.343 158.091 207.81 156.869L209.765 158.824C207.81 160.778 206.099 161.511 203.41 161.511C200.966 161.511 199.011 160.778 197.544 159.312C196.078 157.846 195.1 155.891 195.1 153.448C195.1 151.249 195.833 149.294 197.3 147.828C198.766 146.362 200.722 145.385 203.166 145.385C205.854 145.385 207.565 146.118 209.521 148.072L207.565 150.272C206.099 149.05 204.632 148.317 202.921 148.317C201.455 148.317 200.233 148.805 199.255 149.783C198.277 150.76 197.789 151.982 197.789 153.448C198.033 155.403 198.766 156.624 199.499 157.357Z"
                stroke="white" stroke-width="0.216" stroke-miterlimit="22.9256" fill="#2F2482" />
            <path d="M214.165 146.118H228.341V148.806H222.719V161.511H219.786V148.806H214.165V146.118Z"
                fill="#2F2482" />
            <path d="M214.165 146.118H228.341V148.806H222.719V161.511H219.786V148.806H214.165V146.118Z" stroke="white"
                stroke-width="0.216" stroke-miterlimit="22.9256" fill="#2F2482" />
            <path
                d="M244.962 155.891C243.74 156.869 242.517 157.602 240.807 157.602H236.407V161.756H233.229V146.362H240.807C242.762 146.362 244.228 147.095 245.451 148.561C246.184 149.538 246.673 150.76 246.673 152.226C246.673 153.448 245.939 154.67 244.962 155.891ZM242.762 153.692C243.251 153.204 243.495 152.471 243.495 151.738C243.495 150.76 243.251 150.271 242.762 149.783C242.273 149.294 241.54 149.05 240.318 149.05H236.163V154.67H240.562C241.54 154.67 242.273 154.425 242.762 153.692Z"
                fill="#2F2482" />
            <path
                d="M244.962 155.891C243.74 156.869 242.517 157.602 240.807 157.602H236.407V161.756H233.229V146.362H240.807C242.762 146.362 244.228 147.095 245.451 148.561C246.184 149.538 246.673 150.76 246.673 152.226C246.673 153.448 245.939 154.67 244.962 155.891ZM242.762 153.692C243.251 153.204 243.495 152.471 243.495 151.738C243.495 150.76 243.251 150.271 242.762 149.783C242.273 149.294 241.54 149.05 240.318 149.05H236.163V154.67H240.562C241.54 154.67 242.273 154.425 242.762 153.692Z"
                stroke="white" stroke-width="0.216" stroke-miterlimit="22.9256" fill="#2F2482" />
            <path
                d="M265.493 148.072C266.96 149.538 267.937 151.493 267.937 153.937C267.937 156.136 267.204 158.09 265.738 159.556C264.271 161.023 262.316 162 259.871 162C257.427 162 255.227 161.023 253.761 159.556C252.539 158.09 251.561 156.136 251.561 153.937C251.561 151.737 252.294 149.783 253.761 148.317C255.227 146.851 257.183 145.873 259.871 145.873C262.071 145.873 264.027 146.606 265.493 148.072ZM255.961 157.357C256.938 158.335 258.16 159.068 259.627 159.068C261.094 159.068 262.316 158.579 263.293 157.602C264.027 156.624 264.76 155.403 264.76 153.937C264.76 152.471 264.271 151.004 263.538 150.271C262.56 149.294 261.338 148.805 259.871 148.805C258.405 148.805 257.183 149.294 256.205 150.271C255.472 151.249 254.739 152.471 254.739 153.937C254.494 155.403 254.983 156.38 255.961 157.357Z"
                fill="#2F2482" />
            <path
                d="M265.493 148.072C266.96 149.538 267.937 151.493 267.937 153.937C267.937 156.136 267.204 158.09 265.738 159.556C264.271 161.023 262.316 162 259.871 162C257.427 162 255.227 161.023 253.761 159.556C252.539 158.09 251.561 156.136 251.561 153.937C251.561 151.737 252.294 149.783 253.761 148.317C255.227 146.851 257.183 145.873 259.871 145.873C262.071 145.873 264.027 146.606 265.493 148.072ZM255.961 157.357C256.938 158.335 258.16 159.068 259.627 159.068C261.094 159.068 262.316 158.579 263.293 157.602C264.027 156.624 264.76 155.403 264.76 153.937C264.76 152.471 264.271 151.004 263.538 150.271C262.56 149.294 261.338 148.805 259.871 148.805C258.405 148.805 257.183 149.294 256.205 150.271C255.472 151.249 254.739 152.471 254.739 153.937C254.494 155.403 254.983 156.38 255.961 157.357Z"
                stroke="white" stroke-width="0.216" stroke-miterlimit="22.9256" fill="#2F2482" />
            <path
                d="M276.003 156.624L284.314 145.873H287.002V161.267H284.069V150.516L275.759 161.267H273.07V145.873H276.003V156.624ZM284.314 142.453C284.069 143.186 283.336 143.919 282.847 144.163C282.114 144.652 281.136 144.896 280.403 144.896C279.67 144.896 278.692 144.652 277.959 144.163C277.47 143.674 276.737 143.186 276.492 142.453L278.692 141.475C278.936 141.72 279.181 141.964 279.425 142.208C279.67 142.453 280.158 142.697 280.647 142.697C281.136 142.697 281.38 142.453 281.869 142.208C282.114 141.964 282.358 141.72 282.603 141.231L284.314 142.453Z"
                fill="#2F2482" />
            <path
                d="M276.003 156.624L284.314 145.873H287.002V161.267H284.069V150.516L275.759 161.267H273.07V145.873H276.003V156.624ZM284.314 142.453C284.069 143.186 283.336 143.919 282.847 144.163C282.114 144.652 281.136 144.896 280.403 144.896C279.67 144.896 278.692 144.652 277.959 144.163C277.47 143.674 276.737 143.186 276.492 142.453L278.692 141.475C278.936 141.72 279.181 141.964 279.425 142.208C279.67 142.453 280.158 142.697 280.647 142.697C281.136 142.697 281.38 142.453 281.869 142.208C282.114 141.964 282.358 141.72 282.603 141.231L284.314 142.453Z"
                stroke="white" stroke-width="0.216" stroke-miterlimit="22.9256" fill="#2F2482" />
            <path d="M244.228 38.3619L282.847 49.8461V64.5067L244.228 52.7782V38.3619Z" fill="#2F2482" />
            <path d="M244.473 38.3619L171.391 60.1085V64.7511L244.473 43.0045V38.3619Z" fill="#2F2482" />
            <path d="M244.228 0L282.847 11.4842V26.1448L244.228 14.4163V0Z" fill="#2F2482" />
            <path d="M244.473 0L171.391 21.7466V26.3891L244.473 4.64253V0Z" fill="#2F2482" />
            <path d="M244.228 19.0589L282.847 30.7874V45.2037L244.228 33.7195V19.0589Z" fill="#2F2482" />
            <path d="M244.473 19.0589L171.391 41.0498V45.6924L244.473 23.7014V19.0589Z" fill="#2F2482" />
            <path
                d="M302.401 84.2987V98.4706H282.847V84.2987H276.248V121.195H282.847V104.335H302.401V121.195H309V84.2987H302.401ZM238.851 102.869C238.851 99.2037 240.318 96.0272 242.273 93.5838C244.717 91.1403 248.139 89.6743 251.806 89.6743C255.472 89.6743 258.649 91.1403 261.094 93.5838C263.293 95.7829 264.515 98.9593 264.515 102.869C264.515 106.534 263.049 109.71 261.094 112.154C258.649 114.597 255.472 116.063 251.561 116.063C247.895 116.063 244.473 114.597 242.029 111.91C240.318 109.71 238.851 106.534 238.851 102.869ZM251.806 83.81C245.939 83.81 240.807 86.0091 237.385 89.6743C234.207 93.0951 232.252 97.7376 232.252 102.869C232.252 107.756 234.207 112.643 237.385 115.819C240.807 119.484 245.939 121.928 251.806 121.928C257.672 121.928 262.56 119.729 265.982 116.308C269.404 112.887 271.115 108.244 271.115 102.869C271.115 97.4933 269.159 92.6064 265.738 89.1856C262.316 85.7648 257.672 83.81 251.806 83.81ZM201.21 84.2987L197.544 111.421C197.3 112.643 196.811 113.864 196.078 114.597C195.344 115.33 194.367 115.575 193.145 115.575C192.167 115.575 191.189 115.575 189.723 115.086L188.501 120.462C190.7 121.195 192.167 121.439 194.367 121.439C197.055 121.439 199.255 120.706 200.722 119.24C202.188 117.774 203.166 115.819 203.655 112.887L206.832 89.9186H220.764V120.95H227.119V84.2987H201.21ZM165.525 91.1403H166.258L173.346 108.733H158.681L165.525 91.1403ZM162.592 84.2987L146.216 121.195H153.06L155.993 114.353H175.791L178.968 121.195H186.056L169.68 84.2987H162.592ZM114.441 90.4073H128.129V121.439H134.484V90.4073H148.171V84.543H114.441V90.4073ZM87.0659 105.068H106.62C106.375 107.756 105.397 109.955 103.931 111.665C101.487 114.353 97.8204 116.063 93.9097 116.063C89.5101 116.063 86.3327 114.353 82.9108 111.421L79 115.819C83.3996 119.973 87.7992 121.928 93.9097 121.928C99.5314 121.928 104.42 119.973 107.842 116.552C111.264 113.131 113.463 108.489 113.463 102.869C113.463 97.2489 111.264 92.6064 107.842 89.1856C104.175 85.7648 99.287 83.81 93.9097 83.81C87.7992 83.81 83.3996 85.7648 78.7556 89.6743L82.6663 94.0724C85.8438 91.1403 89.2657 89.6743 93.6653 89.6743C97.3316 89.6743 100.509 91.1403 103.198 93.5838C104.42 94.8055 105.642 97.0046 106.131 99.2037H86.5771V105.068H87.0659Z"
                fill="#1A1A18" />
        </g>
    </symbol>

    <symbol id="play" viewBox="0 0 22 26">
        <g>
            <path d="M0 0L22 13L4.60288e-07 26L0 0Z" fill="white" />
        </g>
    </symbol>

    <symbol id="family" viewBox="0 0 38 41">
        <g clip-path="url(#clip0)">
            <path
                d="M28.3151 16.3627C26.6831 16.3651 25.0872 15.8872 23.7291 14.9893C22.3711 14.0914 21.312 12.8139 20.6859 11.3186C20.0599 9.82324 19.895 8.17723 20.2122 6.58887C20.5293 5.00051 21.3143 3.54121 22.4676 2.39566C23.621 1.2501 25.091 0.469801 26.6915 0.153501C28.292 -0.162799 29.951 -0.000876058 31.4588 0.618776C32.9665 1.23843 34.255 2.28795 35.1613 3.63452C36.0676 4.98109 36.551 6.56417 36.5502 8.18341C36.5468 10.3502 35.6784 12.4275 34.135 13.9605C32.5916 15.4934 30.4989 16.3572 28.3151 16.3627ZM28.3151 1.28098C26.94 1.28016 25.5956 1.68394 24.4518 2.44125C23.3081 3.19856 22.4163 4.27539 21.8893 5.53557C21.3624 6.79575 21.2238 8.18269 21.4913 9.52098C21.7587 10.8593 22.4201 12.0888 23.3919 13.0541C24.3636 14.0195 25.602 14.6772 26.9505 14.9442C28.2989 15.2112 29.6969 15.0754 30.9676 14.554C32.2383 14.0327 33.3247 13.1491 34.0893 12.0152C34.8539 10.8812 35.2625 9.54776 35.2633 8.18341C35.2611 6.35526 34.5285 4.60256 33.226 3.30947C31.9236 2.01639 30.1576 1.28842 28.3151 1.28513V1.28098Z"
                fill="#2F2482" />
            <path
                d="M28.3153 12.1756C27.2485 12.1745 26.2258 11.7535 25.4714 11.0051C24.7171 10.2566 24.2929 9.24181 24.2917 8.18335H25.587C25.587 8.90186 25.8746 9.59094 26.3867 10.099C26.8987 10.6071 27.5932 10.8925 28.3174 10.8925C29.0415 10.8925 29.736 10.6071 30.2481 10.099C30.7601 9.59094 31.0478 8.90186 31.0478 8.18335H32.343C32.3419 9.24253 31.917 10.258 31.1618 11.0065C30.4066 11.7551 29.3828 12.1756 28.3153 12.1756Z"
                fill="#2F2482" />
            <path
                d="M8.5318 20.2719C7.09312 20.2719 5.68674 19.8486 4.49052 19.0555C3.2943 18.2625 2.36196 17.1352 1.8114 15.8164C1.26084 14.4976 1.11679 13.0464 1.39746 11.6463C1.67814 10.2463 2.37093 8.96026 3.38823 7.95087C4.40553 6.94149 5.70165 6.25409 7.11269 5.9756C8.52373 5.69711 9.98631 5.84004 11.3155 6.38632C12.6447 6.93259 13.7807 7.85768 14.58 9.04459C15.3793 10.2315 15.8059 11.6269 15.8059 13.0544C15.8037 14.9679 15.0366 16.8025 13.6729 18.1555C12.3092 19.5086 10.4603 20.2697 8.5318 20.2719ZM8.5318 7.12205C7.34929 7.12205 6.19333 7.46998 5.21011 8.12184C4.22688 8.77369 3.46055 9.7002 3.00803 10.7842C2.5555 11.8682 2.4371 13.061 2.66779 14.2118C2.89849 15.3625 3.46792 16.4196 4.30409 17.2492C5.14025 18.0789 6.20559 18.6439 7.36538 18.8728C8.52517 19.1017 9.72732 18.9842 10.8198 18.5352C11.9123 18.0862 12.8461 17.3258 13.5031 16.3503C14.16 15.3747 14.5107 14.2277 14.5107 13.0544C14.5085 11.4817 13.8779 9.97408 12.7571 8.86202C11.6363 7.74997 10.1168 7.12425 8.5318 7.12205Z"
                fill="#2F2482" />
            <path
                d="M8.53154 16.6197C7.57891 16.6186 6.66561 16.2426 5.99199 15.5742C5.31838 14.9059 4.93946 13.9997 4.93835 13.0544H6.23357C6.23357 13.6592 6.47568 14.2391 6.90663 14.6667C7.33758 15.0943 7.92208 15.3345 8.53154 15.3345C9.141 15.3345 9.72549 15.0943 10.1564 14.6667C10.5874 14.2391 10.8295 13.6592 10.8295 13.0544H12.1247C12.1236 13.9997 11.7447 14.9059 11.0711 15.5742C10.3975 16.2426 9.48417 16.6186 8.53154 16.6197Z"
                fill="#2F2482" />
            <path
                d="M25.2693 32.1538H23.9741C23.9686 31.237 23.698 30.341 23.1943 29.5723C22.6907 28.8036 21.9752 28.1945 21.1329 27.8175L21.6719 26.6484C22.7396 27.1284 23.646 27.9022 24.2837 28.8781C24.9213 29.8539 25.2634 30.9908 25.2693 32.1538Z"
                fill="#2F2482" />
            <path
                d="M14.3519 32.1535H13.0566C13.0606 30.9912 13.4004 29.8544 14.0358 28.8779C14.6712 27.9013 15.5755 27.1261 16.6415 26.644L17.1804 27.8131C16.3399 28.1923 15.6266 28.8027 15.1252 29.5721C14.6238 30.3414 14.3554 31.2374 14.3519 32.1535Z"
                fill="#2F2482" />
            <path
                d="M19.1565 28.4599C18.1217 28.4608 17.1099 28.157 16.2491 27.5872C15.3883 27.0174 14.7172 26.2071 14.3207 25.2588C13.9241 24.3104 13.8199 23.2667 14.0213 22.2596C14.2226 21.2525 14.7205 20.3273 15.4519 19.601C16.1833 18.8747 17.1154 18.38 18.1302 18.1794C19.145 17.9788 20.197 18.0813 21.1531 18.474C22.1092 18.8668 22.9264 19.532 23.5014 20.3856C24.0764 21.2393 24.3833 22.2429 24.3833 23.2696C24.3822 24.6451 23.8313 25.964 22.8514 26.9371C21.8715 27.9101 20.5427 28.4577 19.1565 28.4599ZM19.1565 19.3645C18.378 19.3645 17.6171 19.5935 16.9698 20.0226C16.3226 20.4517 15.8181 21.0616 15.5203 21.7752C15.2224 22.4888 15.1444 23.274 15.2963 24.0315C15.4482 24.789 15.823 25.4849 16.3734 26.031C16.9239 26.5771 17.6251 26.9491 18.3886 27.0998C19.1521 27.2504 19.9434 27.1731 20.6626 26.8775C21.3818 26.582 21.9965 26.0814 22.4289 25.4392C22.8614 24.797 23.0922 24.042 23.0922 23.2696C23.0911 22.2343 22.6761 21.2416 21.9383 20.5095C21.2004 19.7774 20.1999 19.3656 19.1565 19.3645Z"
                fill="#2F2482" />
            <path
                d="M19.1568 25.9344C18.4458 25.9333 17.7641 25.6526 17.2613 25.1537C16.7586 24.6548 16.4756 23.9785 16.4745 23.2729H17.7488C17.7385 23.4603 17.7667 23.6478 17.8318 23.824C17.897 24.0002 17.9976 24.1613 18.1276 24.2976C18.2577 24.4339 18.4143 24.5424 18.588 24.6166C18.7618 24.6908 18.9489 24.7291 19.138 24.7291C19.3272 24.7291 19.5143 24.6908 19.688 24.6166C19.8618 24.5424 20.0184 24.4339 20.1484 24.2976C20.2785 24.1613 20.3791 24.0002 20.4442 23.824C20.5094 23.6478 20.5376 23.4603 20.5273 23.2729H21.8225C21.8214 23.9756 21.5407 24.6494 21.0415 25.1479C20.5423 25.6463 19.865 25.929 19.1568 25.9344Z"
                fill="#2F2482" />
            <path d="M2.56536 12.6858H1.27014V25.2884H2.56536V12.6858Z" fill="#2F2482" />
            <path d="M12.4447 7.36426L1.65405 12.0999L2.17797 13.2752L12.9686 8.53957L12.4447 7.36426Z"
                fill="#2F2482" />
            <path d="M15.8056 13.0544H14.5104V21.043H15.8056V13.0544Z" fill="#2F2482" />
            <path d="M32.4055 1.51272L20.4495 6.75977L20.9734 7.93507L32.9294 2.68802L32.4055 1.51272Z"
                fill="#2F2482" />
            <path
                d="M38.0041 32.8001H-0.0168018V29.5707C-0.0223627 27.8511 0.500519 26.1707 1.48212 24.7535C2.46373 23.3363 3.85741 22.2497 5.47735 21.6386C7.09728 21.0275 8.86648 20.9208 10.5491 21.3329C12.2316 21.745 13.7476 22.6562 14.8949 23.9451C15.119 24.1939 15.3283 24.4555 15.5216 24.7286L14.4604 25.4665C14.2967 25.234 14.1196 25.0111 13.9298 24.7991C12.9559 23.7101 11.6711 22.941 10.2461 22.594C8.82104 22.247 7.32335 22.3386 5.95203 22.8564C4.58071 23.3743 3.40072 24.2941 2.56889 25.4934C1.73706 26.6927 1.29279 28.1148 1.29513 29.5707V31.5191H36.7089V26.7641C36.712 25.1632 36.2493 23.5954 35.3764 22.249C34.5036 20.9026 33.2575 19.8348 31.788 19.1738C30.3185 18.5129 28.6879 18.2868 27.0921 18.5228C25.4962 18.7588 24.003 19.4468 22.7916 20.5042L21.9559 19.5383C23.355 18.3238 25.077 17.5348 26.9161 17.2658C28.7552 16.9967 30.6334 17.259 32.3262 18.0212C34.019 18.7834 35.4547 20.0133 36.4616 21.5637C37.4686 23.1142 38.0041 24.9196 38.0041 26.7641V32.8001Z"
                fill="#2F2482" />
        </g>
        <defs>
            <clipPath id="clip0">
                <rect width="38" height="41" fill="white" />
            </clipPath>
        </defs>
    </symbol>

    <symbol id="house" viewBox="0 0 91 88">
        <g>
            <path
                d="M80.251 71.964H76.405V44H77.795C78.347 44 78.795 43.553 78.795 43V36.583C78.795 36.03 78.347 35.583 77.795 35.583H76.405V6.01099C76.405 6.56399 76.405 6.64087 76.405 6.01099H74.405L31.362 6.01124C29.975 6.01124 29.362 6.01099 29.362 6.01099V27.95C27.879 25.576 25.127 23.994 21.991 23.994C17.286 23.994 13.458 27.576 13.458 31.978C13.458 32.924 13.636 33.85 13.988 34.737C13.708 35.088 13.462 35.457 13.239 35.838C12.358 35.458 11.396 35.248 10.421 35.248C6.69895 35.248 3.67095 38.089 3.67095 41.58C3.67095 42.287 3.79595 42.979 4.04395 43.645C3.08595 44.892 2.56395 46.394 2.56395 47.938C2.56395 48.811 2.72795 49.663 3.05195 50.478C1.95195 51.913 1.35295 53.644 1.35295 55.419C1.35295 59.787 4.90195 63.392 9.44395 63.849L9.46795 71.963H2.25195C1.69995 71.963 1.25195 72.41 1.25195 72.963V78C1.25195 78.553 1.69995 79 2.25195 79H80.252C80.804 79 81.252 78.553 81.252 78V72.964C81.251 72.411 80.803 71.964 80.251 71.964ZM74.405 71.964H60.585V54.695C60.585 50.768 57.391 47.574 53.464 47.574C49.537 47.574 46.343 50.768 46.343 54.695V71.964H31.362V56.534C31.362 56.501 31.346 56.474 31.343 56.442C32.731 54.661 33.56 52.476 33.56 50.109C33.56 47.95 32.879 45.865 31.59 44.081C31.57 44.054 31.549 44.027 31.529 44H74.405V71.964ZM58.585 71.964H48.344V54.695C48.344 51.871 50.641 49.574 53.465 49.574C56.289 49.574 58.586 51.871 58.586 54.695L58.585 71.964ZM23.052 71.964L23.017 60.862C25.415 60.664 27.607 59.786 29.362 58.428V71.964H23.052ZM75.231 37.583L72.772 40.841L70.313 37.583H75.231ZM71.141 42H66.525L68.832 38.941L71.141 42ZM64.896 40.839L62.441 37.583H67.352L64.896 40.839ZM63.266 42H58.657L60.961 38.942L63.266 42ZM57.028 40.839L54.573 37.583H59.481L57.028 40.839ZM55.399 42H50.789L53.094 38.942L55.399 42ZM49.16 40.839L46.705 37.583H51.614L49.16 40.839ZM47.531 42H42.922L45.226 38.942L47.531 42ZM41.293 40.838L38.842 37.583H43.746L41.293 40.838ZM39.665 42H35.059L37.363 38.943L39.665 42ZM33.402 40.876L31.866 38.98C31.793 38.506 31.679 38.04 31.53 37.584H35.884L33.402 40.876ZM74.402 42L76.795 38.831V42H74.402ZM74.405 6.01099V35.583H31.362V6.01124L74.405 6.01099ZM21.991 25.994C25.48 25.994 28.345 28.492 28.516 31.682C28.521 31.78 28.524 31.879 28.524 31.978C28.524 32.834 28.324 33.669 27.928 34.459C27.742 34.83 27.805 35.278 28.087 35.583C29.304 36.906 29.975 38.584 29.975 40.308C29.975 41.372 29.723 42.411 29.225 43.391C29.038 43.759 29.097 44.204 29.373 44.512C29.586 44.748 29.785 44.995 29.97 45.252C31.011 46.692 31.561 48.372 31.561 50.108C31.561 54.644 27.81 58.388 23.011 58.857L22.996 54.305L26.361 50.94C26.752 50.549 26.752 49.917 26.361 49.526C25.97 49.135 25.338 49.135 24.947 49.526L22.987 51.486L22.975 47.703C22.973 47.151 22.526 46.706 21.975 46.706H21.972C21.42 46.708 20.973 47.157 20.975 47.709L20.987 51.349L19.164 49.526C18.773 49.135 18.141 49.135 17.75 49.526C17.359 49.917 17.359 50.549 17.75 50.94L20.996 54.186L21.011 58.863C16.193 58.41 12.422 54.656 12.422 50.108C12.422 48.071 13.199 46.083 14.61 44.51C14.886 44.202 14.944 43.758 14.758 43.39C14.26 42.409 14.008 41.371 14.008 40.307C14.008 38.583 14.678 36.906 15.896 35.582C16.177 35.277 16.24 34.83 16.055 34.458C15.66 33.667 15.459 32.832 15.459 31.977C15.458 28.679 18.389 25.994 21.991 25.994ZM3.35195 55.42C3.35195 53.923 3.92395 52.461 4.96195 51.305C5.23795 50.998 5.29595 50.552 5.10895 50.184C4.74595 49.47 4.56195 48.714 4.56195 47.939C4.56195 46.682 5.05195 45.459 5.93995 44.493C6.22095 44.188 6.28395 43.741 6.09895 43.37C5.81395 42.799 5.66895 42.196 5.66895 41.581C5.66895 39.192 7.79995 37.249 10.419 37.249C11.115 37.249 11.799 37.396 12.426 37.664C12.155 38.518 12.006 39.407 12.006 40.31C12.006 41.471 12.235 42.604 12.69 43.687C11.222 45.54 10.42 47.796 10.42 50.111C10.42 54.028 12.673 57.455 16.025 59.349C14.897 60.702 13.255 61.588 11.436 61.83L11.424 57.742C11.423 57.19 10.975 56.745 10.424 56.745H10.421C9.86895 56.747 9.42195 57.196 9.42395 57.748L9.43595 61.834C6.00495 61.39 3.35195 58.688 3.35195 55.42ZM11.443 63.843C14.046 63.567 16.41 62.253 17.909 60.204C18.89 60.551 19.93 60.78 21.016 60.865L21.051 71.965H11.467L11.443 63.843ZM79.251 77H3.25095V73.964H79.251V77Z"
                fill="#2F2482" />
            <path
                d="M36.2371 68.8109H41.2511C41.8031 68.8109 42.2511 68.3639 42.2511 67.8109V61.0569C42.2511 60.5039 41.8031 60.0569 41.2511 60.0569H36.2371C35.6851 60.0569 35.2371 60.5039 35.2371 61.0569V67.8109C35.2371 68.3629 35.6851 68.8109 36.2371 68.8109ZM37.2371 62.0569H40.2511V66.8109H37.2371V62.0569Z"
                fill="#2F2482" />
            <path
                d="M65.1121 68.8109H70.1261C70.6781 68.8109 71.1261 68.3639 71.1261 67.8109V61.0569C71.1261 60.5039 70.6781 60.0569 70.1261 60.0569H65.1121C64.5601 60.0569 64.1121 60.5039 64.1121 61.0569V67.8109C64.1121 68.3629 64.5601 68.8109 65.1121 68.8109ZM66.1121 62.0569H69.1261V66.8109H66.1121V62.0569Z"
                fill="#2F2482" />
            <path
                d="M36.2371 55.91H41.2511C41.8031 55.91 42.2511 55.463 42.2511 54.91V48.157C42.2511 47.604 41.8031 47.157 41.2511 47.157H36.2371C35.6851 47.157 35.2371 47.604 35.2371 48.157V54.91C35.2371 55.463 35.6851 55.91 36.2371 55.91ZM37.2371 49.157H40.2511V53.91H37.2371V49.157Z"
                fill="#2F2482" />
            <path
                d="M65.1121 55.91H70.1261C70.6781 55.91 71.1261 55.463 71.1261 54.91V48.157C71.1261 47.604 70.6781 47.157 70.1261 47.157H65.1121C64.5601 47.157 64.1121 47.604 64.1121 48.157V54.91C64.1121 55.463 64.5601 55.91 65.1121 55.91ZM66.1121 49.157H69.1261V53.91H66.1121V49.157Z"
                fill="#2F2482" />
            <rect x="31" y="16" width="44" height="2" fill="#2F2482" />
            <rect x="31" y="26" width="44" height="2" fill="#2F2482" />
            <rect x="44" y="8" width="2" height="28" fill="#2F2482" />
            <rect x="60" y="13" width="2" height="23" fill="#2F2482" />
        </g>
    </symbol>

    <symbol id="pipe" viewBox="0 0 75 88">
        <g clip-path="url(#clip0)">
            <path
                d="M73.8281 38.9281H69.6094V23.6703C69.6054 22.2726 70.0476 20.9103 70.8714 19.7827C71.6951 18.6551 72.8572 17.8214 74.1875 17.4037C74.423 17.3276 74.6285 17.1787 74.7745 16.9783C74.9204 16.7779 74.9994 16.5363 75 16.2882V6.17537C74.9998 6.00804 74.9641 5.84267 74.8951 5.6903C74.8261 5.53792 74.7255 5.40206 74.6 5.29177C74.4754 5.17995 74.3278 5.09689 74.1678 5.04844C74.0077 4.99999 73.8389 4.98732 73.6734 5.01133C69.1678 5.62363 65.0354 7.85048 62.04 11.2804C59.0446 14.7103 57.3886 19.1113 57.3781 23.6703V38.9281H52.8469C51.7198 35.861 49.6818 33.2143 47.0077 31.3448C44.3337 29.4752 41.1521 28.4729 37.8922 28.4729C34.6322 28.4729 31.4507 29.4752 28.7766 31.3448C26.1026 33.2143 24.0646 35.861 22.9375 38.9281H15.7203V23.8239C15.724 22.0839 16.4149 20.4162 17.6419 19.1857C18.8688 17.9552 20.5318 17.2621 22.2672 17.258H25.5109C27.2463 17.2621 28.9093 17.9552 30.1363 19.1857C31.3632 20.4162 32.0541 22.0839 32.0578 23.8239V25.9545C32.0578 26.2662 32.1813 26.565 32.401 26.7854C32.6208 27.0057 32.9189 27.1295 33.2297 27.1295C33.5405 27.1295 33.8386 27.0057 34.0583 26.7854C34.2781 26.565 34.4016 26.2662 34.4016 25.9545V23.8239C34.3978 21.4606 33.46 19.1952 31.7935 17.524C30.1271 15.8528 27.8679 14.9121 25.5109 14.908H22.2672C19.9102 14.9121 17.651 15.8528 15.9846 17.524C14.3181 19.1952 13.3803 21.4606 13.3766 23.8239V77.8504H5.83906V23.8239C5.84402 19.4566 7.57638 15.2696 10.6561 12.1814C13.7359 9.09313 17.9116 7.35576 22.2672 7.35037H25.5109C29.8667 7.35534 34.0426 9.09259 37.1224 12.1809C40.2023 15.2693 41.9345 19.4565 41.9391 23.8239V26.2162C41.9391 26.5278 42.0625 26.8267 42.2823 27.047C42.5021 27.2674 42.8001 27.3912 43.1109 27.3912C43.4217 27.3912 43.7198 27.2674 43.9396 27.047C44.1593 26.8267 44.2828 26.5278 44.2828 26.2162V23.8239C44.2774 18.8335 42.298 14.049 38.7788 10.5201C35.2596 6.99127 30.488 5.00617 25.5109 5.00037H22.2672C17.2902 5.00659 12.5189 6.99182 8.99977 10.5206C5.48066 14.0494 3.5011 18.8336 3.49531 23.8239V38.9281H1.17188C0.861074 38.9281 0.563003 39.0519 0.343234 39.2722C0.123465 39.4926 0 39.7915 0 40.1031L0 50.0107C0 50.3223 0.123465 50.6212 0.343234 50.8415C0.563003 51.0619 0.861074 51.1857 1.17188 51.1857H3.49531V79.0254C3.49531 79.337 3.61878 79.6359 3.83855 79.8562C4.05832 80.0766 4.35639 80.2004 4.66719 80.2004H14.5484C14.8592 80.2004 15.1573 80.0766 15.3771 79.8562C15.5968 79.6359 15.7203 79.337 15.7203 79.0254V51.1857H23.4375C24.715 53.9603 26.7597 56.3091 29.3288 57.9534C31.898 59.5977 34.8836 60.4683 37.9315 60.4621C40.9794 60.4558 43.9615 59.5729 46.5239 57.918C49.0863 56.2632 51.1213 53.906 52.3875 51.1262C52.4833 51.1593 52.5832 51.1794 52.6844 51.1857H57.3859V53.9368C57.3875 55.0229 57.1199 56.0925 56.6073 57.0494C56.0947 58.0062 55.353 58.8205 54.449 59.4189C53.5449 60.0174 52.5068 60.3813 51.4278 60.478C50.3488 60.5748 49.2628 60.4013 48.2672 59.9731C48.1253 59.9081 47.9719 59.8721 47.816 59.8674C47.66 59.8626 47.5047 59.889 47.3591 59.9452C47.2135 60.0014 47.0806 60.0862 46.9681 60.1946C46.8556 60.3029 46.7658 60.4328 46.704 60.5764C46.6422 60.72 46.6097 60.8746 46.6082 61.031C46.6068 61.1874 46.6365 61.3425 46.6957 61.4873C46.7548 61.632 46.8422 61.7635 46.9527 61.8739C47.0632 61.9844 47.1945 62.0716 47.3391 62.1304C48.4441 62.609 49.6353 62.8554 50.8391 62.8542C53.1963 62.8501 55.4557 61.9091 57.1222 60.2376C58.7887 58.5661 59.7264 56.3003 59.7297 53.9368V23.6703C59.7385 19.9135 61.0237 16.2717 63.3736 13.3455C65.7234 10.4192 68.9975 8.38311 72.6562 7.57283V15.472C71.052 16.1545 69.6842 17.2964 68.7242 18.7548C67.7642 20.2131 67.2547 21.923 67.2594 23.6703V53.9368C67.2612 57.494 66.1143 60.9562 63.9903 63.8054C61.8662 66.6546 58.8792 68.7377 55.476 69.7429C52.0729 70.7482 48.4366 70.6216 45.1112 69.3821C41.7858 68.1426 38.95 65.8568 37.0281 62.8668L36.8422 62.591C36.76 62.4573 36.652 62.3414 36.5244 62.2502C36.3967 62.159 36.2522 62.0945 36.0993 62.0603C35.9463 62.0261 35.7881 62.023 35.634 62.0512C35.4799 62.0794 35.3329 62.1383 35.2019 62.2244C35.0708 62.3106 34.9584 62.4222 34.8711 62.5526C34.7838 62.6831 34.7235 62.8298 34.6938 62.9841C34.664 63.1383 34.6654 63.2969 34.6979 63.4506C34.7304 63.6043 34.7932 63.7499 34.8828 63.8788L35.0797 64.1749C37.2796 67.5874 40.522 70.1943 44.322 71.6058C48.1221 73.0174 52.2758 73.1578 56.1621 72.0061C60.0484 70.8544 63.4585 68.4724 65.8826 65.2163C68.3068 61.9601 69.6147 58.0047 69.6109 53.9415V51.1857H73.8297C74.1405 51.1857 74.4386 51.0619 74.6583 50.8415C74.8781 50.6212 75.0016 50.3223 75.0016 50.0107V40.1031C75.0016 39.9487 74.9712 39.7957 74.9122 39.6531C74.8532 39.5104 74.7668 39.3808 74.6578 39.2717C74.5488 39.1626 74.4194 39.076 74.2771 39.0171C74.1347 38.9581 73.9821 38.9279 73.8281 38.9281ZM2.34375 48.8357V41.2781H3.49531V48.8357H2.34375ZM15.7203 48.8357V41.2781H22.25C22.0403 42.3262 21.9356 43.3926 21.9375 44.4616C21.9414 45.9417 22.1518 47.414 22.5625 48.8357H15.7203ZM37.8906 58.1104C35.774 58.1125 33.6861 57.6191 31.7933 56.6693C29.9004 55.7196 28.2549 54.3397 26.9878 52.6398C25.7208 50.9398 24.8671 48.9666 24.4949 46.8774C24.1226 44.7882 24.2421 42.6407 24.8438 40.606C24.8779 40.5229 24.9025 40.4362 24.9172 40.3475C25.6751 37.9422 27.083 35.7945 28.9844 34.1428C30.8859 32.4912 33.2066 31.4001 35.689 30.9906C38.1715 30.5812 40.7185 30.8695 43.0474 31.8235C45.3763 32.7775 47.3961 34.3598 48.8825 36.395C50.3689 38.4301 51.2638 40.8384 51.4679 43.3526C51.672 45.8667 51.1773 48.3885 50.0387 50.6378C48.9001 52.8872 47.1622 54.7762 45.0178 56.0953C42.8734 57.4144 40.4064 58.1119 37.8906 58.1104ZM53.2281 48.8341C53.9365 46.3764 54.04 43.7831 53.5297 41.2765H57.3781V48.8357L53.2281 48.8341ZM72.6562 48.8341H69.6031V41.2781H72.6562V48.8341Z"
                fill="#2F2482" />
            <path
                d="M37.8907 34.4832C36.1762 34.4815 34.4904 34.9244 32.997 35.7688C31.5036 36.6133 30.2534 37.8306 29.3678 39.3026C28.4822 40.7746 27.9913 42.4511 27.9427 44.1695C27.8942 45.8879 28.2896 47.5897 29.0907 49.1096C29.1112 49.2551 29.1589 49.3954 29.2313 49.5232C29.3003 49.6185 29.3842 49.7021 29.4797 49.7707C30.3725 51.1996 31.6126 52.3776 33.0838 53.1942C34.5551 54.0108 36.2091 54.4392 37.8907 54.4392C39.5723 54.4392 41.2263 54.0108 42.6975 53.1942C44.1687 52.3776 45.4089 51.1996 46.3016 49.7707C46.3968 49.7017 46.4806 49.6181 46.5501 49.5232C46.622 49.3953 46.6691 49.255 46.6891 49.1096C47.4906 47.5898 47.8864 45.8881 47.8382 44.1697C47.7899 42.4513 47.2992 40.7746 46.4136 39.3025C45.5281 37.8304 44.2779 36.613 42.7845 35.7686C41.2911 34.9241 39.6052 34.4813 37.8907 34.4832ZM45.4985 44.4613C45.4946 45.4147 45.3107 46.3589 44.9563 47.2437L39.0626 43.8315V36.9601C40.8501 37.2378 42.4803 38.1458 43.66 39.5208C44.8397 40.8958 45.4916 42.6475 45.4985 44.4613ZM36.7188 36.9601V43.8393L30.8251 47.2515C30.4008 46.1915 30.2216 45.0489 30.301 43.9095C30.3805 42.7702 30.7164 41.6637 31.2837 40.6732C31.8509 39.6827 32.6347 38.834 33.576 38.1909C34.5174 37.5478 35.5919 37.127 36.7188 36.9601ZM37.8907 52.0972C36.7656 52.0939 35.6554 51.8391 34.641 51.3512C33.6266 50.8634 32.7334 50.1548 32.0266 49.2772L37.8907 45.8822L43.7501 49.2615C43.0445 50.14 42.1524 50.8497 41.1388 51.3388C40.1252 51.828 39.0156 52.0844 37.8907 52.0894V52.0972Z"
                fill="#2F2482" />
        </g>
        <defs>
            <clipPath id="clip0">
                <rect width="75" height="88" fill="white" />
            </clipPath>
        </defs>
    </symbol>

    <symbol id="sport" viewBox="0 0 82 88">
        <g>
            <path d="M77.714 5.52124C75.5686 5.52124 73.8237 7.25771 73.8237 9.39263V15.2954H63.0836V9.39263C63.0836 7.25771 61.3386 5.52124 59.1933 5.52124C57.0479 5.52124 55.3017 7.25771 55.3017 9.39263V15.2954H8.17633V9.39263C8.17633 7.25771 6.43134 5.52124 4.28597 5.52124C2.14059 5.52124 0.394409 7.25771 0.394409 9.39263V74.8607C0.394409 75.5332 0.941809 76.0786 1.61829 76.0786H6.95245C7.62893 76.0786 8.17633 75.5332 8.17633 74.8607V22.0933H15.6905V34.9557C12.9072 35.5213 10.807 37.9756 10.807 40.9096C10.807 44.2607 13.5463 46.9867 16.9144 46.9867C20.2825 46.9867 23.0219 44.2607 23.0219 40.9096C23.0219 37.9756 20.9216 35.5213 18.1383 34.9557V22.0933H32.8416V34.9557C30.0592 35.5214 27.9592 37.9757 27.9592 40.9096C27.9592 44.2607 30.6986 46.9867 34.0655 46.9867C37.4335 46.9867 40.1729 44.2607 40.1729 40.9096C40.1729 37.9756 38.0727 35.5213 35.2893 34.9557V22.0933H45.3397V47.1348C42.5573 47.7005 40.4574 50.1548 40.4574 53.0887C40.4574 56.4398 43.1968 59.1658 46.5636 59.1658C49.9317 59.1658 52.6711 56.4398 52.6711 53.0887C52.6711 50.1547 50.5708 47.7004 47.7875 47.1348V22.0933H55.3017V74.8607C55.3017 75.5332 55.8491 76.0786 56.5256 76.0786H61.8597C62.5362 76.0786 63.0836 75.5332 63.0836 74.8607V71.1165H73.8237V74.8607C73.8237 75.5332 74.3711 76.0786 75.0475 76.0786H80.3817C81.0582 76.0786 81.6056 75.5332 81.6056 74.8607V9.39263C81.6056 7.25771 79.8594 5.52124 77.714 5.52124ZM20.5741 40.9096C20.5741 42.9173 18.9319 44.5509 16.9144 44.5509C14.8969 44.5509 13.2547 42.9173 13.2547 40.9096C13.2547 38.902 14.8969 37.2684 16.9144 37.2684C18.9319 37.2684 20.5741 38.902 20.5741 40.9096ZM37.7252 40.9096C37.7252 42.9173 36.083 44.5509 34.0655 44.5509C32.048 44.5509 30.407 42.9173 30.407 40.9096C30.407 38.902 32.048 37.2684 34.0655 37.2684C36.083 37.2684 37.7252 38.902 37.7252 40.9096ZM50.2233 53.0887C50.2233 55.0964 48.5811 56.73 46.5636 56.73C44.5461 56.73 42.9051 55.0964 42.9051 53.0887C42.9051 51.0811 44.5461 49.4475 46.5636 49.4475C48.5811 49.4475 50.2233 51.0811 50.2233 53.0887ZM73.8237 43.6154H63.0836V40.9233H73.8237V43.6154ZM63.0836 38.4875V33.5189H73.8237V38.4875H63.0836ZM73.8237 31.0831H63.0836V28.391H73.8237V31.0831ZM63.0836 46.0513H73.8237V51.0198H63.0836V46.0513ZM63.0836 53.4557H73.8237V56.1484H63.0836V53.4557ZM73.8237 25.9551H63.0836V22.0933H73.8237V25.9551ZM63.0836 58.5842H73.8237V63.5528H63.0836V58.5842ZM73.8237 17.7313V19.6574H63.0836V17.7313H73.8237ZM5.72857 73.6428H2.84217V9.39263C2.84217 8.6011 3.48997 7.95706 4.28597 7.95706C5.08197 7.95706 5.72857 8.6011 5.72857 9.39263C5.72857 22.859 5.72857 61.514 5.72857 73.6428ZM8.17633 19.6574V17.7313H55.3017V19.6574H8.17633ZM60.6359 73.6428H57.7495C57.7495 62.3575 57.7495 22.8558 57.7495 9.39263C57.7495 8.6011 58.3973 7.95706 59.1933 7.95706C59.9893 7.95706 60.6359 8.6011 60.6359 9.39263C60.6359 9.67623 60.6359 28.0998 60.6359 27.173C60.6359 45.3308 60.6359 57.9226 60.6359 73.6428ZM63.0836 68.6807V65.9886H73.8237V68.6807H63.0836ZM79.1578 73.6428H76.2714C76.2714 73.5152 76.2714 8.26176 76.2714 9.39263C76.2714 8.6011 76.918 7.95706 77.714 7.95706C78.51 7.95706 79.1578 8.6011 79.1578 9.39263V73.6428Z" fill="#2F2482"/>
        </g>
    </symbol>
</svg>