<svg xmlns="http://www.w3.org/2000/svg">
    <symbol id="logo-long" viewBox="0 0 398 60">
        <g>
            <path
                d="M120.9 17.3999C121.5 17.9999 122.3 18.3999 123.3 18.3999C124.4 18.3999 125.2 17.9999 125.9 17.3999L126.6 18.0999C125.7 18.9999 124.8 19.3999 123.4 19.3999C122.1 19.3999 121.1 18.8999 120.3 18.1999C119.5 17.3999 119 16.2999 119 15.0999C119 13.8999 119.5 12.7999 120.2 12.0999C121 11.2999 122.1 10.8999 123.4 10.8999C124.8 10.8999 125.7 11.2999 126.6 12.0999L125.9 12.7999C125.2 12.1999 124.5 11.7999 123.4 11.7999C122.5 11.7999 121.7 12.0999 121.1 12.6999C120.5 13.2999 120.1 14.0999 120.1 15.0999C120 15.9999 120.4 16.7999 120.9 17.3999Z"
                fill="#7DA4DD" />
            <path
                d="M136.1 17.4003C136.7 18.1003 137.5 18.4003 138.5 18.4003C139.4 18.4003 140.3 18.0003 140.9 17.4003C141.4 16.8003 141.8 16.0003 141.8 15.1003C141.8 14.1003 141.5 13.3003 140.9 12.8003C140.3 12.2003 139.5 11.8003 138.5 11.8003C137.6 11.8003 136.7 12.2003 136.1 12.8003C135.6 13.4003 135.2 14.2003 135.2 15.1003C135.3 16.0003 135.6 16.8003 136.1 17.4003ZM141.7 12.0003C142.5 12.8003 142.9 13.9003 142.9 15.1003C142.9 16.3003 142.5 17.3003 141.7 18.1003C140.9 18.9003 139.8 19.4003 138.5 19.4003C137.2 19.4003 136 18.9003 135.2 18.0003C134.5 17.2003 134.1 16.2003 134.1 15.1003C134.1 13.9003 134.5 12.9003 135.3 12.1003C136.1 11.3003 137.2 10.8003 138.5 10.8003C139.8 10.8003 140.9 11.2003 141.7 12.0003Z"
                fill="#7DA4DD" />
            <path
                d="M156.1 17.8001C156.5 17.5001 156.7 17.1001 156.7 16.5001C156.7 16.1001 156.6 15.8001 156.3 15.5001C156 15.2001 155.6 15.0001 155.1 15.0001H152.1V14.0001H154.8C155.3 14.0001 155.6 13.8001 155.8 13.6001C156 13.4001 156.1 13.1001 156.1 12.9001C156.1 12.5001 155.9 12.2001 155.6 12.0001C155.1 11.7001 154.3 11.6001 153.8 11.6001C153 11.6001 152.1 11.8001 151.2 12.1001L150.8 11.3001C151.7 10.8001 152.7 10.6001 153.8 10.6001C154.6 10.6001 155.7 10.8001 156.4 11.3001C156.9 11.6001 157.2 12.1001 157.2 12.8001C157.2 13.1001 157.1 13.4001 156.9 13.7001C156.8 13.9001 156.6 14.1001 156.3 14.3001V14.4001C156.7 14.6001 157 14.8001 157.3 15.1001C157.6 15.5001 157.8 15.9001 157.8 16.5001C157.8 17.3001 157.5 18.0001 156.8 18.5001C156.2 19.0001 155.3 19.3001 153.9 19.3001C152.5 19.3001 151.4 19.1001 150.4 18.5001L150.8 17.6001C151.9 18.1001 152.8 18.3001 153.9 18.3001C154.9 18.4001 155.6 18.2001 156.1 17.8001Z"
                fill="#7DA4DD" />
            <path
                d="M169.1 11.9003L168.4 16.6003C168.3 17.3003 168.1 17.8003 167.7 18.3003H172.7V12.0003H169.1V11.9003ZM173.8 10.9003V18.2003H174.7V20.9003H173.8L173.6 19.2003H166.8L166.6 20.9003H165.7V18.2003C166.3 18.2003 166.6 18.0003 166.9 17.6003C167.2 17.3003 167.3 16.8003 167.4 16.2003L168.2 10.8003H173.8V10.9003Z"
                fill="#7DA4DD" />
            <path
                d="M185 16.5999H189.1L187.2 11.9999H187L185 16.5999ZM187.8 10.8999L191.5 19.1999H190.3L189.6 17.5999H184.7L184 19.1999H182.8L186.5 10.8999H187.8Z"
                fill="#7DA4DD" />
            <path
                d="M205.4 15.7999C205.1 15.4999 204.7 15.2999 204.1 15.2999H200.8V18.2999H204C204.6 18.2999 205 18.0999 205.3 17.7999C205.5 17.4999 205.7 17.1999 205.7 16.7999C205.7 16.2999 205.6 15.9999 205.4 15.7999ZM204.9 12.1999C204.7 11.9999 204.4 11.8999 203.8 11.8999H200.8V14.2999H204C204.5 14.2999 204.8 14.0999 204.9 13.8999C205.1 13.6999 205.2 13.3999 205.2 13.0999C205.2 12.7999 205.1 12.3999 204.9 12.1999ZM199.7 19.1999V10.8999H204C204.7 10.8999 205.4 11.0999 205.8 11.5999C206.2 11.9999 206.3 12.3999 206.3 12.9999C206.3 13.2999 206.2 13.6999 206.1 13.8999C205.9 14.1999 205.7 14.3999 205.5 14.4999V14.5999C205.9 14.7999 206.2 14.9999 206.5 15.3999C206.8 15.7999 206.9 16.1999 206.9 16.6999C206.9 17.3999 206.6 17.9999 206.2 18.3999C205.7 18.8999 205 19.0999 204.2 19.0999H199.7V19.1999Z"
                fill="#7DA4DD" />
            <path
                d="M216.9 16.5999H221L219.1 11.9999H218.9L216.9 16.5999ZM219.7 10.8999L223.4 19.1999H222.2L221.5 17.5999H216.6L215.9 19.1999H214.7L218.4 10.8999H219.7Z"
                fill="#7DA4DD" />
            <path
                d="M232.9 15.0999C233.2 15.5999 233.8 15.8999 234.7 15.8999H237.5V11.8999H234.7C233.9 11.8999 233.3 12.1999 233 12.6999C232.7 12.9999 232.6 13.3999 232.6 13.8999C232.6 14.3999 232.7 14.7999 232.9 15.0999ZM232.2 11.8999C232.8 11.2999 233.6 10.8999 234.7 10.8999H238.6V19.1999H237.5V16.7999H234.4L232.8 19.1999H231.5L233.3 16.5999C232.7 16.3999 232.3 15.9999 231.9 15.4999C231.6 14.9999 231.4 14.4999 231.4 13.7999C231.4 13.0999 231.7 12.3999 232.2 11.8999Z"
                fill="#7DA4DD" />
            <path
                d="M260.5 17.3998C261.1 18.0998 261.9 18.3998 262.9 18.3998C263.8 18.3998 264.7 17.9998 265.3 17.3998C265.8 16.7998 266.2 15.9998 266.2 15.0998C266.2 14.0998 265.9 13.2998 265.3 12.7998C264.7 12.1998 263.9 11.7998 262.9 11.7998C262 11.7998 261.1 12.1998 260.5 12.7998C260 13.3998 259.6 14.1998 259.6 15.0998C259.6 15.9998 259.9 16.7998 260.5 17.3998ZM266 11.9998C266.8 12.7998 267.2 13.8998 267.2 15.0998C267.2 16.2998 266.8 17.2998 266 18.0998C265.2 18.8998 264.1 19.3998 262.8 19.3998C261.5 19.3998 260.3 18.8998 259.5 17.9998C258.8 17.1998 258.4 16.1998 258.4 15.0998C258.4 13.8998 258.8 12.8998 259.6 12.0998C260.4 11.2998 261.5 10.7998 262.8 10.7998C264.2 10.7998 265.3 11.1998 266 11.9998Z"
                fill="#7DA4DD" />
            <path
                d="M277.4 17.3999C278 17.9999 278.8 18.3999 279.8 18.3999C280.9 18.3999 281.7 17.9999 282.4 17.3999L283.1 18.0999C282.2 18.9999 281.3 19.3999 279.9 19.3999C278.6 19.3999 277.6 18.8999 276.8 18.1999C276 17.3999 275.5 16.2999 275.5 15.0999C275.5 13.8999 276 12.7999 276.7 12.0999C277.5 11.2999 278.6 10.8999 279.9 10.8999C281.3 10.8999 282.2 11.2999 283.1 12.0999L282.4 12.7999C281.7 12.1999 281 11.7999 279.9 11.7999C279 11.7999 278.2 12.0999 277.6 12.6999C277 13.2999 276.6 14.0999 276.6 15.0999C276.5 15.9999 276.8 16.7999 277.4 17.3999Z"
                fill="#7DA4DD" />
            <path
                d="M298.5 10.8999V19.1999H297.4V15.1999H292.4V19.1999H291.2V10.8999H292.4V14.2999H297.4V10.8999H298.5Z"
                fill="#7DA4DD" />
            <path
                d="M308.9 17.3998C309.5 18.0998 310.3 18.3998 311.3 18.3998C312.2 18.3998 313.1 17.9998 313.7 17.3998C314.2 16.7998 314.6 15.9998 314.6 15.0998C314.6 14.0998 314.3 13.2998 313.7 12.7998C313.1 12.1998 312.3 11.7998 311.3 11.7998C310.4 11.7998 309.5 12.1998 308.9 12.7998C308.4 13.3998 308 14.1998 308 15.0998C308 15.9998 308.4 16.7998 308.9 17.3998ZM314.4 11.9998C315.2 12.7998 315.6 13.8998 315.6 15.0998C315.6 16.2998 315.2 17.2998 314.4 18.0998C313.6 18.8998 312.5 19.3998 311.2 19.3998C309.9 19.3998 308.7 18.8998 307.9 17.9998C307.2 17.1998 306.8 16.1998 306.8 15.0998C306.8 13.8998 307.2 12.8998 308 12.0998C308.8 11.2998 309.9 10.7998 311.2 10.7998C312.6 10.7998 313.7 11.1998 314.4 11.9998Z"
                fill="#7DA4DD" />
            <path
                d="M329.8 15.7999C329.5 15.4999 329.1 15.2999 328.5 15.2999H325.2V18.2999H328.4C329 18.2999 329.4 18.0999 329.7 17.7999C329.9 17.4999 330.1 17.1999 330.1 16.7999C330.1 16.2999 330 15.9999 329.8 15.7999ZM329.3 12.1999C329.1 11.9999 328.8 11.8999 328.2 11.8999H325.2V14.2999H328.4C328.9 14.2999 329.2 14.0999 329.3 13.8999C329.5 13.6999 329.6 13.3999 329.6 13.0999C329.6 12.7999 329.5 12.3999 329.3 12.1999ZM324.1 19.1999V10.8999H328.4C329.1 10.8999 329.8 11.0999 330.2 11.5999C330.6 11.9999 330.7 12.3999 330.7 12.9999C330.7 13.2999 330.6 13.6999 330.5 13.8999C330.3 14.1999 330.1 14.3999 329.9 14.4999V14.5999C330.3 14.7999 330.6 14.9999 330.9 15.3999C331.2 15.7999 331.3 16.1999 331.3 16.6999C331.3 17.3999 331 17.9999 330.6 18.3999C330.1 18.8999 329.4 19.0999 328.6 19.0999H324.1V19.1999Z"
                fill="#7DA4DD" />
            <path
                d="M348.7 19.1999H347.6V10.8999H348.7V19.1999ZM345.1 14.8999C344.8 14.4999 344.3 14.2999 343.5 14.2999H340.9V18.2999H343.6C344.3 18.2999 344.7 18.0999 345.1 17.6999C345.5 17.3999 345.7 16.7999 345.7 16.1999C345.6 15.6999 345.4 15.1999 345.1 14.8999ZM345.8 18.3999C345.2 18.9999 344.5 19.2999 343.5 19.2999H339.7V10.9999H340.8V13.2999H343.5C344.5 13.2999 345.3 13.6999 345.9 14.2999C346.4 14.7999 346.7 15.4999 346.7 16.2999C346.7 17.0999 346.4 17.7999 345.8 18.3999Z"
                fill="#7DA4DD" />
            <path d="M64.7002 1.8999L98.7002 11.1999V23.9999L64.7002 14.6999V1.8999Z" fill="#7DA4DD" />
            <path d="M64.7999 2L0.399902 19.4V23.5L64.7999 6.10001V2Z" fill="#7DA4DD" />
            <path d="M64.7002 18.7998L98.7002 28.0998V40.8998L64.7002 31.5998V18.7998Z" fill="#7DA4DD" />
            <path d="M64.7999 18.8999L0.399902 36.2999V40.3999L64.7999 22.9999V18.8999Z" fill="#7DA4DD" />
            <path d="M64.7002 35.7002L98.7002 45.0002V57.8002L64.7002 48.5002V35.7002Z" fill="#7DA4DD" />
            <path d="M64.7999 35.7998L0.399902 53.1998V57.2998L64.7999 39.8998V35.7998Z" fill="#7DA4DD" />
            <path
                d="M138.6 37.4V25.4H144.8V37.4H147.5C148.5 37.4 149.1 37.2 149.6 37C149.9 36.8 150.2 36.5 150.4 36L153.5 29.6C154.2 28.2 155.4 26.8 156.6 26.1C157.8 25.4 159.4 25 161.1 25C162.4 25 163.5 25.1 165 25.4L164.4 30.7H162.4C161.6 30.7 160.8 30.8 160.2 31.1C159.7 31.4 159.3 31.8 159 32.3L156 38.3C155.6 38.9 155.2 39.6 154.8 40L165.4 57H158L149.6 42.8C149.1 43 148.5 43 147.9 43H144.9V57H138.7V43H135.7C135.1 43 134.5 42.9 134 42.8L125.6 57H118.1L128.7 40C128.3 39.6 127.9 38.9 127.5 38.3L124.5 32.3C124.2 31.8 123.9 31.4 123.3 31.1C122.7 30.7 121.9 30.7 121.1 30.7H119.1L118.5 25.4C119.9 25.1 121.1 25 122.4 25C124.1 25 125.7 25.4 126.9 26.1C128.2 26.8 129.3 28.2 130 29.6L133.1 36C133.3 36.5 133.6 36.8 133.9 37C134.4 37.3 135.1 37.4 136 37.4H138.6Z"
                fill="white" />
            <path d="M174.5 47.2999L191.6 25.3999H197.3V57.1999H191.2V35.1999L174 57.1999H168.4V25.3999H174.5V47.2999Z"
                fill="white" />
            <path
                d="M233.3 25.3999V57.1999H227.1V31.1999H216L213.4 50.0999C213.1 52.4999 212.2 54.2999 210.9 55.5999C209.5 56.8999 207.6 57.4999 205.2 57.4999C203.2 57.4999 201.9 57.2999 199.9 56.4999L201.3 51.1999C202.6 51.5999 203.3 51.6999 204.3 51.6999C205.3 51.6999 206.1 51.3999 206.6 50.9999C207 50.5999 207.3 49.7999 207.5 48.6999L210.7 25.5999H233.3V25.3999Z"
                fill="white" />
            <path
                d="M246.1 48.7998C248.2 50.8998 250.9 51.9998 253.7 51.9998C257.2 51.9998 260.1 50.6998 263 47.9998L266.8 52.1998C262.8 56.1998 259.2 57.7998 253.7 57.7998C248.8 57.7998 244.7 56.1998 241.7 53.1998C238.7 50.1998 236.9 46.0998 236.9 41.1998C236.9 36.4998 238.6 32.5998 241.6 29.5998C244.6 26.5998 248.7 24.7998 253.7 24.7998C259.2 24.7998 262.8 26.3998 266.8 30.1998L263 34.4998C260 31.6998 257.2 30.4998 253.7 30.4998C250.9 30.4998 248.3 31.5998 246.4 33.4998C244.5 35.3998 243.3 38.1998 243.3 41.1998C243.2 44.4998 244.4 47.0998 246.1 48.7998Z"
                fill="white" />
            <path d="M269 25.3999H298.1V31.0999H286.6V57.1999H280.5V31.0999H269V25.3999Z" fill="white" />
            <path
                d="M320.4 41.0999C321.4 39.9999 321.9 38.6999 321.9 37.0999C321.9 35.1999 321.4 33.8999 320.5 32.8999C319.5 31.6999 317.7 31.1999 315.7 31.1999H307.2V42.9999H316.1C317.9 42.9999 319.4 42.2999 320.4 41.0999ZM324.8 45.3999C322.5 47.5999 319.6 48.7999 316.2 48.7999H307.3V57.1999H300.8V25.3999H316.2C320 25.3999 323.3 26.9999 325.6 29.6999C327.2 31.7999 328.3 34.0999 328.3 37.1999C328.4 40.3999 326.9 43.2999 324.8 45.3999Z"
                fill="white" />
            <path
                d="M339.8 48.7C341.7 50.7 344.4 52 347.4 52C350.4 52 353.1 50.8 355 48.8C356.7 46.9 357.8 44.5 357.8 41.3C357.8 38.1 356.8 35.5 355 33.6C353.1 31.7 350.6 30.6 347.4 30.6C344.4 30.6 341.7 31.7 339.8 33.8C338.1 35.7 336.9 38.2 336.9 41.4C336.9 44.3 338 46.8 339.8 48.7ZM359.3 29.5C362.5 32.6 364.2 36.7 364.2 41.3C364.2 45.9 362.6 49.9 359.6 52.8C356.6 55.9 352.5 57.7 347.4 57.7C342.3 57.7 337.9 55.7 335 52.6C332.3 49.8 330.6 45.6 330.6 41.3C330.6 36.9 332.2 32.9 335 30C338 26.8 342.3 24.9 347.3 24.9C352.3 24.8 356.4 26.6 359.3 29.5Z"
                fill="white" />
            <path
                d="M391 17.8001C390.4 19.4001 389.1 20.6001 387.9 21.5001C386.5 22.6001 384.6 23.1001 382.7 23.1001C381 23.1001 379.2 22.6001 377.7 21.5001C376.5 20.7001 375.2 19.4001 374.6 17.8001L378.9 15.6001C379.3 16.2001 379.7 16.8001 380.2 17.3001C380.9 18.0001 381.7 18.3001 382.7 18.3001C383.6 18.3001 384.4 18.0001 385.2 17.5001C385.8 17.1001 386.3 16.4001 386.6 15.6001L391 17.8001ZM373.8 47.3001L390.9 25.4001H396.6V57.2001H390.5V35.3001L373.3 57.2001H367.6V25.4001H373.7V47.3001H373.8Z"
                fill="white" />
        </g>
    </symbol>

    <symbol id="play" viewBox="0 0 22 26">
        <g>
            <path d="M0 0L22 13L4.60288e-07 26L0 0Z" fill="white"/>
        </g>
    </symbol>
</svg>