<svg xmlns="http://www.w3.org/2000/svg">
    <symbol id="logo-long" viewBox="0 0 398 60">
        <g>
            <path
                d="M120.9 17.3999C121.5 17.9999 122.3 18.3999 123.3 18.3999C124.4 18.3999 125.2 17.9999 125.9 17.3999L126.6 18.0999C125.7 18.9999 124.8 19.3999 123.4 19.3999C122.1 19.3999 121.1 18.8999 120.3 18.1999C119.5 17.3999 119 16.2999 119 15.0999C119 13.8999 119.5 12.7999 120.2 12.0999C121 11.2999 122.1 10.8999 123.4 10.8999C124.8 10.8999 125.7 11.2999 126.6 12.0999L125.9 12.7999C125.2 12.1999 124.5 11.7999 123.4 11.7999C122.5 11.7999 121.7 12.0999 121.1 12.6999C120.5 13.2999 120.1 14.0999 120.1 15.0999C120 15.9999 120.4 16.7999 120.9 17.3999Z"
                fill="#7DA4DD" />
            <path
                d="M136.1 17.4003C136.7 18.1003 137.5 18.4003 138.5 18.4003C139.4 18.4003 140.3 18.0003 140.9 17.4003C141.4 16.8003 141.8 16.0003 141.8 15.1003C141.8 14.1003 141.5 13.3003 140.9 12.8003C140.3 12.2003 139.5 11.8003 138.5 11.8003C137.6 11.8003 136.7 12.2003 136.1 12.8003C135.6 13.4003 135.2 14.2003 135.2 15.1003C135.3 16.0003 135.6 16.8003 136.1 17.4003ZM141.7 12.0003C142.5 12.8003 142.9 13.9003 142.9 15.1003C142.9 16.3003 142.5 17.3003 141.7 18.1003C140.9 18.9003 139.8 19.4003 138.5 19.4003C137.2 19.4003 136 18.9003 135.2 18.0003C134.5 17.2003 134.1 16.2003 134.1 15.1003C134.1 13.9003 134.5 12.9003 135.3 12.1003C136.1 11.3003 137.2 10.8003 138.5 10.8003C139.8 10.8003 140.9 11.2003 141.7 12.0003Z"
                fill="#7DA4DD" />
            <path
                d="M156.1 17.8001C156.5 17.5001 156.7 17.1001 156.7 16.5001C156.7 16.1001 156.6 15.8001 156.3 15.5001C156 15.2001 155.6 15.0001 155.1 15.0001H152.1V14.0001H154.8C155.3 14.0001 155.6 13.8001 155.8 13.6001C156 13.4001 156.1 13.1001 156.1 12.9001C156.1 12.5001 155.9 12.2001 155.6 12.0001C155.1 11.7001 154.3 11.6001 153.8 11.6001C153 11.6001 152.1 11.8001 151.2 12.1001L150.8 11.3001C151.7 10.8001 152.7 10.6001 153.8 10.6001C154.6 10.6001 155.7 10.8001 156.4 11.3001C156.9 11.6001 157.2 12.1001 157.2 12.8001C157.2 13.1001 157.1 13.4001 156.9 13.7001C156.8 13.9001 156.6 14.1001 156.3 14.3001V14.4001C156.7 14.6001 157 14.8001 157.3 15.1001C157.6 15.5001 157.8 15.9001 157.8 16.5001C157.8 17.3001 157.5 18.0001 156.8 18.5001C156.2 19.0001 155.3 19.3001 153.9 19.3001C152.5 19.3001 151.4 19.1001 150.4 18.5001L150.8 17.6001C151.9 18.1001 152.8 18.3001 153.9 18.3001C154.9 18.4001 155.6 18.2001 156.1 17.8001Z"
                fill="#7DA4DD" />
            <path
                d="M169.1 11.9003L168.4 16.6003C168.3 17.3003 168.1 17.8003 167.7 18.3003H172.7V12.0003H169.1V11.9003ZM173.8 10.9003V18.2003H174.7V20.9003H173.8L173.6 19.2003H166.8L166.6 20.9003H165.7V18.2003C166.3 18.2003 166.6 18.0003 166.9 17.6003C167.2 17.3003 167.3 16.8003 167.4 16.2003L168.2 10.8003H173.8V10.9003Z"
                fill="#7DA4DD" />
            <path
                d="M185 16.5999H189.1L187.2 11.9999H187L185 16.5999ZM187.8 10.8999L191.5 19.1999H190.3L189.6 17.5999H184.7L184 19.1999H182.8L186.5 10.8999H187.8Z"
                fill="#7DA4DD" />
            <path
                d="M205.4 15.7999C205.1 15.4999 204.7 15.2999 204.1 15.2999H200.8V18.2999H204C204.6 18.2999 205 18.0999 205.3 17.7999C205.5 17.4999 205.7 17.1999 205.7 16.7999C205.7 16.2999 205.6 15.9999 205.4 15.7999ZM204.9 12.1999C204.7 11.9999 204.4 11.8999 203.8 11.8999H200.8V14.2999H204C204.5 14.2999 204.8 14.0999 204.9 13.8999C205.1 13.6999 205.2 13.3999 205.2 13.0999C205.2 12.7999 205.1 12.3999 204.9 12.1999ZM199.7 19.1999V10.8999H204C204.7 10.8999 205.4 11.0999 205.8 11.5999C206.2 11.9999 206.3 12.3999 206.3 12.9999C206.3 13.2999 206.2 13.6999 206.1 13.8999C205.9 14.1999 205.7 14.3999 205.5 14.4999V14.5999C205.9 14.7999 206.2 14.9999 206.5 15.3999C206.8 15.7999 206.9 16.1999 206.9 16.6999C206.9 17.3999 206.6 17.9999 206.2 18.3999C205.7 18.8999 205 19.0999 204.2 19.0999H199.7V19.1999Z"
                fill="#7DA4DD" />
            <path
                d="M216.9 16.5999H221L219.1 11.9999H218.9L216.9 16.5999ZM219.7 10.8999L223.4 19.1999H222.2L221.5 17.5999H216.6L215.9 19.1999H214.7L218.4 10.8999H219.7Z"
                fill="#7DA4DD" />
            <path
                d="M232.9 15.0999C233.2 15.5999 233.8 15.8999 234.7 15.8999H237.5V11.8999H234.7C233.9 11.8999 233.3 12.1999 233 12.6999C232.7 12.9999 232.6 13.3999 232.6 13.8999C232.6 14.3999 232.7 14.7999 232.9 15.0999ZM232.2 11.8999C232.8 11.2999 233.6 10.8999 234.7 10.8999H238.6V19.1999H237.5V16.7999H234.4L232.8 19.1999H231.5L233.3 16.5999C232.7 16.3999 232.3 15.9999 231.9 15.4999C231.6 14.9999 231.4 14.4999 231.4 13.7999C231.4 13.0999 231.7 12.3999 232.2 11.8999Z"
                fill="#7DA4DD" />
            <path
                d="M260.5 17.3998C261.1 18.0998 261.9 18.3998 262.9 18.3998C263.8 18.3998 264.7 17.9998 265.3 17.3998C265.8 16.7998 266.2 15.9998 266.2 15.0998C266.2 14.0998 265.9 13.2998 265.3 12.7998C264.7 12.1998 263.9 11.7998 262.9 11.7998C262 11.7998 261.1 12.1998 260.5 12.7998C260 13.3998 259.6 14.1998 259.6 15.0998C259.6 15.9998 259.9 16.7998 260.5 17.3998ZM266 11.9998C266.8 12.7998 267.2 13.8998 267.2 15.0998C267.2 16.2998 266.8 17.2998 266 18.0998C265.2 18.8998 264.1 19.3998 262.8 19.3998C261.5 19.3998 260.3 18.8998 259.5 17.9998C258.8 17.1998 258.4 16.1998 258.4 15.0998C258.4 13.8998 258.8 12.8998 259.6 12.0998C260.4 11.2998 261.5 10.7998 262.8 10.7998C264.2 10.7998 265.3 11.1998 266 11.9998Z"
                fill="#7DA4DD" />
            <path
                d="M277.4 17.3999C278 17.9999 278.8 18.3999 279.8 18.3999C280.9 18.3999 281.7 17.9999 282.4 17.3999L283.1 18.0999C282.2 18.9999 281.3 19.3999 279.9 19.3999C278.6 19.3999 277.6 18.8999 276.8 18.1999C276 17.3999 275.5 16.2999 275.5 15.0999C275.5 13.8999 276 12.7999 276.7 12.0999C277.5 11.2999 278.6 10.8999 279.9 10.8999C281.3 10.8999 282.2 11.2999 283.1 12.0999L282.4 12.7999C281.7 12.1999 281 11.7999 279.9 11.7999C279 11.7999 278.2 12.0999 277.6 12.6999C277 13.2999 276.6 14.0999 276.6 15.0999C276.5 15.9999 276.8 16.7999 277.4 17.3999Z"
                fill="#7DA4DD" />
            <path
                d="M298.5 10.8999V19.1999H297.4V15.1999H292.4V19.1999H291.2V10.8999H292.4V14.2999H297.4V10.8999H298.5Z"
                fill="#7DA4DD" />
            <path
                d="M308.9 17.3998C309.5 18.0998 310.3 18.3998 311.3 18.3998C312.2 18.3998 313.1 17.9998 313.7 17.3998C314.2 16.7998 314.6 15.9998 314.6 15.0998C314.6 14.0998 314.3 13.2998 313.7 12.7998C313.1 12.1998 312.3 11.7998 311.3 11.7998C310.4 11.7998 309.5 12.1998 308.9 12.7998C308.4 13.3998 308 14.1998 308 15.0998C308 15.9998 308.4 16.7998 308.9 17.3998ZM314.4 11.9998C315.2 12.7998 315.6 13.8998 315.6 15.0998C315.6 16.2998 315.2 17.2998 314.4 18.0998C313.6 18.8998 312.5 19.3998 311.2 19.3998C309.9 19.3998 308.7 18.8998 307.9 17.9998C307.2 17.1998 306.8 16.1998 306.8 15.0998C306.8 13.8998 307.2 12.8998 308 12.0998C308.8 11.2998 309.9 10.7998 311.2 10.7998C312.6 10.7998 313.7 11.1998 314.4 11.9998Z"
                fill="#7DA4DD" />
            <path
                d="M329.8 15.7999C329.5 15.4999 329.1 15.2999 328.5 15.2999H325.2V18.2999H328.4C329 18.2999 329.4 18.0999 329.7 17.7999C329.9 17.4999 330.1 17.1999 330.1 16.7999C330.1 16.2999 330 15.9999 329.8 15.7999ZM329.3 12.1999C329.1 11.9999 328.8 11.8999 328.2 11.8999H325.2V14.2999H328.4C328.9 14.2999 329.2 14.0999 329.3 13.8999C329.5 13.6999 329.6 13.3999 329.6 13.0999C329.6 12.7999 329.5 12.3999 329.3 12.1999ZM324.1 19.1999V10.8999H328.4C329.1 10.8999 329.8 11.0999 330.2 11.5999C330.6 11.9999 330.7 12.3999 330.7 12.9999C330.7 13.2999 330.6 13.6999 330.5 13.8999C330.3 14.1999 330.1 14.3999 329.9 14.4999V14.5999C330.3 14.7999 330.6 14.9999 330.9 15.3999C331.2 15.7999 331.3 16.1999 331.3 16.6999C331.3 17.3999 331 17.9999 330.6 18.3999C330.1 18.8999 329.4 19.0999 328.6 19.0999H324.1V19.1999Z"
                fill="#7DA4DD" />
            <path
                d="M348.7 19.1999H347.6V10.8999H348.7V19.1999ZM345.1 14.8999C344.8 14.4999 344.3 14.2999 343.5 14.2999H340.9V18.2999H343.6C344.3 18.2999 344.7 18.0999 345.1 17.6999C345.5 17.3999 345.7 16.7999 345.7 16.1999C345.6 15.6999 345.4 15.1999 345.1 14.8999ZM345.8 18.3999C345.2 18.9999 344.5 19.2999 343.5 19.2999H339.7V10.9999H340.8V13.2999H343.5C344.5 13.2999 345.3 13.6999 345.9 14.2999C346.4 14.7999 346.7 15.4999 346.7 16.2999C346.7 17.0999 346.4 17.7999 345.8 18.3999Z"
                fill="#7DA4DD" />
            <path d="M64.7002 1.8999L98.7002 11.1999V23.9999L64.7002 14.6999V1.8999Z" fill="#7DA4DD" />
            <path d="M64.7999 2L0.399902 19.4V23.5L64.7999 6.10001V2Z" fill="#7DA4DD" />
            <path d="M64.7002 18.7998L98.7002 28.0998V40.8998L64.7002 31.5998V18.7998Z" fill="#7DA4DD" />
            <path d="M64.7999 18.8999L0.399902 36.2999V40.3999L64.7999 22.9999V18.8999Z" fill="#7DA4DD" />
            <path d="M64.7002 35.7002L98.7002 45.0002V57.8002L64.7002 48.5002V35.7002Z" fill="#7DA4DD" />
            <path d="M64.7999 35.7998L0.399902 53.1998V57.2998L64.7999 39.8998V35.7998Z" fill="#7DA4DD" />
            <path
                d="M138.6 37.4V25.4H144.8V37.4H147.5C148.5 37.4 149.1 37.2 149.6 37C149.9 36.8 150.2 36.5 150.4 36L153.5 29.6C154.2 28.2 155.4 26.8 156.6 26.1C157.8 25.4 159.4 25 161.1 25C162.4 25 163.5 25.1 165 25.4L164.4 30.7H162.4C161.6 30.7 160.8 30.8 160.2 31.1C159.7 31.4 159.3 31.8 159 32.3L156 38.3C155.6 38.9 155.2 39.6 154.8 40L165.4 57H158L149.6 42.8C149.1 43 148.5 43 147.9 43H144.9V57H138.7V43H135.7C135.1 43 134.5 42.9 134 42.8L125.6 57H118.1L128.7 40C128.3 39.6 127.9 38.9 127.5 38.3L124.5 32.3C124.2 31.8 123.9 31.4 123.3 31.1C122.7 30.7 121.9 30.7 121.1 30.7H119.1L118.5 25.4C119.9 25.1 121.1 25 122.4 25C124.1 25 125.7 25.4 126.9 26.1C128.2 26.8 129.3 28.2 130 29.6L133.1 36C133.3 36.5 133.6 36.8 133.9 37C134.4 37.3 135.1 37.4 136 37.4H138.6Z"
                fill="white" />
            <path d="M174.5 47.2999L191.6 25.3999H197.3V57.1999H191.2V35.1999L174 57.1999H168.4V25.3999H174.5V47.2999Z"
                fill="white" />
            <path
                d="M233.3 25.3999V57.1999H227.1V31.1999H216L213.4 50.0999C213.1 52.4999 212.2 54.2999 210.9 55.5999C209.5 56.8999 207.6 57.4999 205.2 57.4999C203.2 57.4999 201.9 57.2999 199.9 56.4999L201.3 51.1999C202.6 51.5999 203.3 51.6999 204.3 51.6999C205.3 51.6999 206.1 51.3999 206.6 50.9999C207 50.5999 207.3 49.7999 207.5 48.6999L210.7 25.5999H233.3V25.3999Z"
                fill="white" />
            <path
                d="M246.1 48.7998C248.2 50.8998 250.9 51.9998 253.7 51.9998C257.2 51.9998 260.1 50.6998 263 47.9998L266.8 52.1998C262.8 56.1998 259.2 57.7998 253.7 57.7998C248.8 57.7998 244.7 56.1998 241.7 53.1998C238.7 50.1998 236.9 46.0998 236.9 41.1998C236.9 36.4998 238.6 32.5998 241.6 29.5998C244.6 26.5998 248.7 24.7998 253.7 24.7998C259.2 24.7998 262.8 26.3998 266.8 30.1998L263 34.4998C260 31.6998 257.2 30.4998 253.7 30.4998C250.9 30.4998 248.3 31.5998 246.4 33.4998C244.5 35.3998 243.3 38.1998 243.3 41.1998C243.2 44.4998 244.4 47.0998 246.1 48.7998Z"
                fill="white" />
            <path d="M269 25.3999H298.1V31.0999H286.6V57.1999H280.5V31.0999H269V25.3999Z" fill="white" />
            <path
                d="M320.4 41.0999C321.4 39.9999 321.9 38.6999 321.9 37.0999C321.9 35.1999 321.4 33.8999 320.5 32.8999C319.5 31.6999 317.7 31.1999 315.7 31.1999H307.2V42.9999H316.1C317.9 42.9999 319.4 42.2999 320.4 41.0999ZM324.8 45.3999C322.5 47.5999 319.6 48.7999 316.2 48.7999H307.3V57.1999H300.8V25.3999H316.2C320 25.3999 323.3 26.9999 325.6 29.6999C327.2 31.7999 328.3 34.0999 328.3 37.1999C328.4 40.3999 326.9 43.2999 324.8 45.3999Z"
                fill="white" />
            <path
                d="M339.8 48.7C341.7 50.7 344.4 52 347.4 52C350.4 52 353.1 50.8 355 48.8C356.7 46.9 357.8 44.5 357.8 41.3C357.8 38.1 356.8 35.5 355 33.6C353.1 31.7 350.6 30.6 347.4 30.6C344.4 30.6 341.7 31.7 339.8 33.8C338.1 35.7 336.9 38.2 336.9 41.4C336.9 44.3 338 46.8 339.8 48.7ZM359.3 29.5C362.5 32.6 364.2 36.7 364.2 41.3C364.2 45.9 362.6 49.9 359.6 52.8C356.6 55.9 352.5 57.7 347.4 57.7C342.3 57.7 337.9 55.7 335 52.6C332.3 49.8 330.6 45.6 330.6 41.3C330.6 36.9 332.2 32.9 335 30C338 26.8 342.3 24.9 347.3 24.9C352.3 24.8 356.4 26.6 359.3 29.5Z"
                fill="white" />
            <path
                d="M391 17.8001C390.4 19.4001 389.1 20.6001 387.9 21.5001C386.5 22.6001 384.6 23.1001 382.7 23.1001C381 23.1001 379.2 22.6001 377.7 21.5001C376.5 20.7001 375.2 19.4001 374.6 17.8001L378.9 15.6001C379.3 16.2001 379.7 16.8001 380.2 17.3001C380.9 18.0001 381.7 18.3001 382.7 18.3001C383.6 18.3001 384.4 18.0001 385.2 17.5001C385.8 17.1001 386.3 16.4001 386.6 15.6001L391 17.8001ZM373.8 47.3001L390.9 25.4001H396.6V57.2001H390.5V35.3001L373.3 57.2001H367.6V25.4001H373.7V47.3001H373.8Z"
                fill="white" />
        </g>
    </symbol>

    <symbol id="logo-dev" viewBox="0 0 318 158">
        <g clip-path="url(#clip0)">
            <path d="M245.3 0.300003L284 10.8V25.4L245.3 14.9V0.300003Z" fill="#A90F3D" />
            <path d="M245.4 0.399994L172.2 20.2V24.9L245.4 5V0.399994Z" fill="#A90F3D" />
            <path d="M245.3 19.5L284 30.1V44.6L245.3 34.1V19.5Z" fill="#A90F3D" />
            <path d="M245.4 19.6L172.2 39.5V44.1L245.4 24.2V19.6Z" fill="#A90F3D" />
            <path d="M245.3 38.7L284 49.3V63.9L245.3 53.3V38.7Z" fill="#A90F3D" />
            <path d="M245.4 38.8L172.2 58.7V63.3L245.4 43.5V38.8Z" fill="#A90F3D" />
            <path
                d="M23.5 99.4V85.7H30.6V99.4H33.7C34.8 99.4 35.6 99.2 36.1 98.9C36.5 98.7 36.8 98.3 37 97.8L40.5 90.6C41.3 89 42.6 87.4 44.1 86.6C45.5 85.8 47.2 85.4 49.2 85.4C50.6 85.4 52 85.5 53.6 85.8L52.9 91.9H50.7C49.7 91.9 48.9 92 48.2 92.4C47.6 92.7 47.2 93.2 46.9 93.7L43.5 100.6C43.1 101.3 42.6 102.1 42.2 102.6L54.3 122H45.7L36.1 105.8C35.5 106 34.8 106 34.1 106H30.7V121.9H23.6V106H20.2C19.5 106 18.8 105.9 18.2 105.8L8.60001 122H0L12.1 102.6C11.7 102.1 11.2 101.3 10.8 100.6L7.39999 93.7C7.09999 93.2 6.70001 92.7 6.10001 92.4C5.40001 92 4.50001 91.9 3.60001 91.9H1.39999L0.699997 85.8C2.3 85.5 3.70001 85.4 5.10001 85.4C7.10001 85.4 8.8 85.8 10.2 86.6C11.6 87.4 13 89 13.8 90.6L17.3 97.8C17.5 98.3 17.8 98.7 18.2 98.9C18.7 99.2 19.5 99.4 20.6 99.4H23.5Z"
                fill="black" />
            <path d="M64.4 110.6L83.9 85.7H90.5V121.9H83.5V96.9L63.9 121.9H57.4V85.7H64.4V110.6Z" fill="black" />
            <path
                d="M131.5 85.7V121.9H124.4V92.2H111.7L108.7 113.7C108.3 116.4 107.4 118.5 105.9 119.9C104.3 121.3 102.1 122.1 99.4001 122.1C97.2001 122.1 95.7 121.9 93.3 121L94.9001 114.9C96.4001 115.3 97.1 115.4 98.3 115.4C99.4 115.4 100.4 115.1 100.9 114.6C101.4 114.1 101.7 113.2 101.9 111.9L105.5 85.6H131.5V85.7Z"
                fill="black" />
            <path
                d="M146.1 112.3C148.5 114.7 151.5 115.9 154.7 115.9C158.7 115.9 161.9 114.4 165.3 111.3L169.6 116.1C165.1 120.7 160.9 122.5 154.7 122.5C149.1 122.5 144.4 120.6 141.1 117.3C137.7 113.9 135.7 109.2 135.7 103.7C135.7 98.4 137.6 93.9 141 90.4C144.4 87 149.1 85 154.8 85C161 85 165.2 86.8 169.7 91.2L165.4 96.1C162 93 158.8 91.6 154.8 91.6C151.6 91.6 148.6 92.9 146.5 95C144.4 97.1 142.9 100.4 142.9 103.8C142.8 107.4 144.1 110.4 146.1 112.3Z"
                fill="black" />
            <path d="M172.2 85.7H205.3V92.2H192.3V121.9H185.2V92.2H172.2V85.7Z" fill="black" />
            <path
                d="M230.8 103.6C231.9 102.3 232.6 100.8 232.6 99.1C232.6 97 232 95.5 231 94.3C229.9 92.9 227.9 92.3 225.5 92.3H215.8V105.7H225.9C227.9 105.7 229.5 105 230.8 103.6ZM235.8 108.4C233.2 110.9 229.9 112.3 226 112.3H215.8V121.9H208.4V85.7H226C230.3 85.7 234.1 87.5 236.7 90.6C238.6 93 239.8 95.7 239.8 99.1C239.8 102.7 238.2 106.1 235.8 108.4Z"
                fill="black" />
            <path
                d="M252.8 112.2C254.9 114.4 258 115.9 261.5 115.9C264.9 115.9 268 114.6 270.1 112.2C272 110.1 273.3 107.3 273.3 103.7C273.3 100.1 272.2 97.1 270.2 94.9C268.1 92.7 265.2 91.5 261.5 91.5C258.1 91.5 255 92.8 252.8 95.1C250.8 97.2 249.5 100.1 249.5 103.7C249.6 107.2 250.8 110 252.8 112.2ZM275.1 90.3C278.7 93.9 280.7 98.5 280.7 103.8C280.7 109.1 278.8 113.6 275.5 117C272.1 120.6 267.4 122.6 261.6 122.6C255.8 122.6 250.8 120.4 247.5 116.7C244.4 113.5 242.5 108.7 242.5 103.8C242.5 98.7 244.4 94.3 247.6 90.9C251 87.3 255.9 85 261.7 85C267.1 85 271.7 87 275.1 90.3Z"
                fill="black" />
            <path
                d="M311.2 77C310.5 78.9 309.1 80.2 307.7 81.2C306.1 82.4 303.9 83.1 301.8 83.1C299.8 83.1 297.8 82.5 296.1 81.2C294.7 80.2 293.3 78.8 292.5 77L297.4 74.5C297.8 75.2 298.3 75.9 298.9 76.4C299.7 77.2 300.6 77.5 301.8 77.5C302.8 77.5 303.8 77.2 304.6 76.5C305.3 76 305.8 75.3 306.2 74.4L311.2 77ZM291.6 110.6L311.1 85.7H317.6V121.9H310.7V96.9L291.1 121.9H284.6V85.7H291.6V110.6Z"
                fill="black" />
            <path
                d="M30.9001 145.8L29.9001 152.8C29.8001 153.8 29.4 154.7 28.8 155.3H36.2001V145.8H30.9001ZM37.9001 144.3V155.2H39.2001V159.2H37.8L37.5001 156.7H27.3L27.1001 159.2H25.8V155.2C26.7 155.2 27.2001 154.8 27.6001 154.4C28.0001 153.9 28.2001 153.2 28.4001 152.3L29.5001 144.3H37.9001Z"
                fill="#A90F3D" />
            <path d="M52.4 144.3H61.9V145.9H54.1V149.5H61.1V151H54.1V155.3H62.2V156.8H52.4V144.3Z" fill="#A90F3D" />
            <path
                d="M84 151.6C83.6 151.1 83 150.8 82.1 150.8H77.2V155.3H82C82.9 155.3 83.4 155 83.9 154.6C84.3 154.2 84.5 153.7 84.5 153C84.5 152.4 84.3 152 84 151.6ZM83.2 146.3C82.9 146 82.4 145.8 81.5 145.8H77.1V149.4H81.9C82.6 149.4 83 149.2 83.3 148.8C83.6 148.4 83.8 148 83.8 147.6C83.7 147.1 83.5 146.6 83.2 146.3ZM75.5 156.8V144.4H81.9C83 144.4 84 144.7 84.6 145.5C85.1 146 85.4 146.7 85.4 147.6C85.4 148.1 85.3 148.6 85.1 149C84.9 149.4 84.6 149.7 84.1 150V150.1C84.7 150.3 85.2 150.8 85.5 151.3C85.9 151.9 86.1 152.5 86.1 153.2C86.1 154.3 85.7 155.2 85 155.8C84.3 156.5 83.2 156.9 82.1 156.9H75.5V156.8Z"
                fill="#A90F3D" />
            <path d="M99.6 144.3H109.1V145.9H101.3V149.5H108.3V151H101.3V155.3H109.4V156.8H99.6V144.3Z"
                fill="#A90F3D" />
            <path
                d="M135.3 144.3V156.7H133.6V145.8H128.1L126.9 154.2C126.8 155 126.5 155.6 126 156.1C125.5 156.6 124.8 156.8 124 156.8C123.3 156.8 122.9 156.7 122.3 156.6L122.6 155.3C123 155.4 123.3 155.4 123.6 155.4C124.1 155.4 124.5 155.3 124.8 155C125.1 154.7 125.3 154.3 125.4 153.7L126.7 144.4H135.3V144.3Z"
                fill="#A90F3D" />
            <path
                d="M151.6 154C152.5 155 153.8 155.5 155.2 155.5C156.6 155.5 157.8 155 158.7 154C159.5 153.1 160 152 160 150.5C160 149.1 159.5 147.9 158.7 147C157.8 146.1 156.6 145.5 155.2 145.5C153.8 145.5 152.5 146.1 151.6 147C150.8 147.9 150.3 149 150.3 150.5C150.3 152 150.8 153.1 151.6 154ZM159.9 146C161.1 147.2 161.7 148.8 161.7 150.6C161.7 152.4 161.1 153.9 159.9 155.1C158.7 156.3 157.1 157 155.1 157C153.1 157 151.4 156.2 150.2 155C149.1 153.8 148.5 152.3 148.5 150.6C148.5 148.9 149.1 147.3 150.2 146.2C151.4 145 153 144.2 155 144.2C157.1 144.1 158.7 144.8 159.9 146Z"
                fill="#A90F3D" />
            <path d="M185.8 144.3V156.8H184.1V145.8H176.8V156.8H175.1V144.3H185.8Z" fill="#A90F3D" />
            <path
                d="M201.8 144.3L206.5 151L211.2 144.3H213.2V156.8H211.6V146.6H211.4L206.7 153.3H206.2L201.5 146.6H201.3V156.8H199.8V144.3H201.8Z"
                fill="#A90F3D" />
            <path d="M227.2 144.3H236.7V145.9H228.9V149.5H235.8V151H228.9V155.3H237V156.8H227.2V144.3Z"
                fill="#A90F3D" />
            <path d="M261.1 144.3V156.8H259.4V150.8H251.9V156.8H250.2V144.3H251.9V149.3H259.4V144.3H261.1Z"
                fill="#A90F3D" />
            <path d="M274.1 144.3H285.6V145.8H280.7V156.8H279.1V145.8H274.1V144.3Z" fill="#A90F3D" />
        </g>
        <defs>
            <clipPath id="clip0">
                <rect width="318" height="158" fill="white" />
            </clipPath>
        </defs>
    </symbol>
    <symbol id="logo-ind" viewBox="0 0 318 158">
        <g clip-path="url(#clip0)">
            <path d="M241.6 -0.100006L279.7 10.4V24.8L241.6 14.4V-0.100006Z" fill="#009944" />
            <path d="M241.7 0L169.6 19.7V24.3L241.7 4.60001V0Z" fill="#009944" />
            <path d="M241.6 19L279.7 29.4V43.9L241.6 33.4V19Z" fill="#009944" />
            <path d="M241.7 19L169.6 38.7V43.3L241.7 23.7V19Z" fill="#009944" />
            <path d="M241.6 38L279.7 48.5V62.9L241.6 52.5V38Z" fill="#009944" />
            <path d="M241.7 38.1L169.6 57.8V62.4L241.7 42.7V38.1Z" fill="#009944" />
            <path
                d="M23.8 99.2V85.7H30.8V99.2H33.8C34.9 99.2 35.6 99 36.2 98.7C36.6 98.5 36.9 98.1 37.1 97.6L40.5 90.4C41.3 88.8 42.6 87.2 44 86.5C45.4 85.7 47.1 85.3 49 85.3C50.4 85.3 51.7 85.4 53.3 85.7L52.6 91.7H50.4C49.5 91.7 48.6 91.8 47.9 92.2C47.3 92.5 46.9 93 46.6 93.5L43.2 100.3C42.8 101 42.3 101.8 41.9 102.3L53.8 121.4H45.4L36 105.4C35.4 105.6 34.8 105.6 34 105.6H30.6V121.3H23.6V105.6H20.2C19.5 105.6 18.8 105.5 18.2 105.4L8.80003 121.4H0.400024L12.3 102.3C11.9 101.8 11.4 101 11 100.3L7.60004 93.5C7.30004 93 6.90003 92.5 6.30003 92.2C5.60003 91.8 4.80003 91.7 3.80003 91.7H1.60004L0.900024 85.7C2.50002 85.4 3.80003 85.3 5.20003 85.3C7.20003 85.3 8.90003 85.7 10.2 86.5C11.6 87.3 12.9 88.8 13.7 90.4L17.1 97.6C17.3 98.1 17.6 98.5 18 98.7C18.5 99 19.3 99.2 20.4 99.2H23.8Z"
                fill="black" />
            <path d="M64.7 110.3L83.9 85.7H90.3V121.5H83.5V96.8L64.2 121.5H57.9V85.7H64.7V110.3Z" fill="black" />
            <path
                d="M131.3 85.7V121.5H124.4V92.2H111.9L109 113.5C108.6 116.2 107.7 118.3 106.2 119.6C104.6 121 102.5 121.7 99.8 121.7C97.6 121.7 96.1 121.5 93.8 120.6L95.3 114.6C96.8 115 97.5001 115.1 98.7001 115.1C99.8001 115.1 100.7 114.8 101.3 114.3C101.8 113.8 102.1 112.9 102.3 111.7L105.9 85.7H131.3Z"
                fill="black" />
            <path
                d="M146.3 112.1C148.6 114.4 151.6 115.7 154.8 115.7C158.8 115.7 161.9 114.2 165.2 111.2L169.4 115.9C165 120.4 160.9 122.2 154.8 122.2C149.3 122.2 144.7 120.4 141.4 117.1C138 113.8 136.1 109.1 136.1 103.6C136.1 98.4 138 93.9 141.3 90.5C144.6 87.2 149.3 85.1 154.8 85.1C160.9 85.1 165 86.9 169.4 91.2L165.2 96C161.9 92.9 158.7 91.5 154.8 91.5C151.7 91.5 148.8 92.8 146.6 94.8C144.5 96.9 143.1 100.1 143.1 103.5C143.1 107.2 144.4 110.2 146.3 112.1Z"
                fill="black" />
            <path d="M172.6 85.7H205.2V92.1H192.4V121.5H185.4V92.1H172.6V85.7Z" fill="black" />
            <path
                d="M230.9 103.4C232 102.1 232.6 100.7 232.6 98.9C232.6 96.8 232 95.3 231.1 94.2C230 92.8 228 92.2 225.7 92.2H216.2V105.4H226.2C228.1 105.5 229.7 104.8 230.9 103.4ZM235.8 108.2C233.2 110.6 230 112 226.2 112H216.2V121.5H209V85.7H226.3C230.6 85.7 234.3 87.5 236.9 90.5C238.7 92.8 239.9 95.5 239.9 98.9C239.8 102.6 238.2 105.9 235.8 108.2Z"
                fill="black" />
            <path
                d="M253.2 111.9C255.3 114.1 258.4 115.6 261.7 115.6C265 115.6 268.1 114.3 270.2 112C272.1 109.9 273.3 107.1 273.3 103.6C273.3 100 272.2 97 270.2 94.9C268.1 92.8 265.3 91.5 261.7 91.5C258.4 91.5 255.3 92.8 253.2 95.1C251.2 97.2 250 100.1 250 103.6C250 107 251.3 109.8 253.2 111.9ZM275.1 90.3C278.7 93.8 280.6 98.4 280.6 103.6C280.6 108.8 278.8 113.3 275.5 116.6C272.1 120.1 267.5 122.1 261.8 122.1C256.1 122.1 251.2 119.9 247.9 116.3C244.9 113.1 243 108.4 243 103.5C243 98.5 244.8 94.1 248 90.7C251.3 87.1 256.1 84.9 261.8 84.9C267.3 85 271.8 87 275.1 90.3Z"
                fill="black" />
            <path
                d="M311.2 77.2C310.5 79 309.1 80.4 307.8 81.4C306.2 82.6 304.1 83.2 302 83.2C300 83.2 298 82.6 296.4 81.4C295 80.4 293.6 79.1 292.9 77.2L297.7 74.7C298.1 75.4 298.6 76.1 299.2 76.6C300 77.4 300.9 77.7 302 77.7C303 77.7 304 77.4 304.8 76.7C305.5 76.2 306 75.5 306.4 74.6L311.2 77.2ZM292 110.3L311.2 85.7H317.6V121.5H310.8V96.8L291.5 121.5H285.2V85.7H292.1V110.3H292Z"
                fill="black" />
            <path d="M31.5 153.7L39.3 143.7H40.9V156H39.4V146L31.5 156H29.9V143.7H31.5V153.7Z" fill="#009944" />
            <path d="M70.8 143.7V156H69.2V150.1H61.8V156H60.1V143.7H61.8V148.6H69.2V143.7H70.8Z" fill="#009944" />
            <path
                d="M94.3 145.1L93.3 152C93.2 153 92.9001 153.8 92.2001 154.5H99.5001V145.1H94.3ZM101.1 143.7V154.6H102.4V158.6H101.1L100.8 156.1H90.8L90.6001 158.6H89.3V154.6C90.2 154.6 90.7001 154.2 91.1001 153.8C91.5001 153.3 91.7001 152.6 91.9001 151.7L93.0001 143.7H101.1Z"
                fill="#009944" />
            <path
                d="M132.2 143.7L126.8 153.9C126.5 154.5 126.1 155.1 125.6 155.5C125.1 155.9 124.5 156.1 123.8 156.1C123.4 156.1 123.1 156.1 122.7 156L122.9 154.7H123.3C123.8 154.7 124.1 154.7 124.5 154.4C124.7 154.2 124.9 154 125.1 153.7L125.3 153.3L119.8 143.7H121.8L126.2 151.6H126.3L130.3 143.7H132.2Z"
                fill="#009944" />
            <path
                d="M152.4 153.3C153.3 154.2 154.5 154.8 155.9 154.8C157.5 154.8 158.6 154.2 159.7 153.3L160.7 154.4C159.4 155.7 158 156.3 155.9 156.3C154 156.3 152.5 155.6 151.3 154.5C150.1 153.4 149.4 151.7 149.4 149.9C149.4 148.1 150.1 146.6 151.2 145.4C152.3 144.3 154 143.6 155.9 143.6C157.9 143.6 159.3 144.2 160.7 145.4L159.7 146.5C158.7 145.6 157.6 145 156 145C154.6 145 153.5 145.5 152.6 146.4C151.7 147.3 151.2 148.5 151.2 149.9C151.1 151.3 151.6 152.4 152.4 153.3Z"
                fill="#009944" />
            <path d="M178.8 143.7H190.1V145.1H185.3V156H183.6V145.1H178.8V143.7Z" fill="#009944" />
            <path
                d="M214.3 151C215.3 151 216.1 150.6 216.5 150.1C216.9 149.5 217.2 148.8 217.2 148.1C217.2 147.3 217 146.6 216.5 146.1C216 145.5 215.2 145.1 214.1 145.1H210.2V150.9H214.3V151ZM217.6 151.2C216.8 152 215.6 152.5 214.2 152.5H210.2V156H208.5V143.7H214.2C215.8 143.7 217.1 144.3 217.9 145.3C218.5 146 218.9 147 218.9 148.1C218.9 149.3 218.4 150.4 217.6 151.2Z"
                fill="#009944" />
            <path d="M239 153.7L246.8 143.7H248.4V156H246.8V146L239 156H237.4V143.7H239V153.7Z" fill="#009944" />
            <path
                d="M269.3 149.9C269.8 150.6 270.6 151.1 271.9 151.1H276V145.2H271.9C270.7 145.2 269.9 145.7 269.4 146.3C269 146.8 268.8 147.4 268.8 148.1C268.8 148.8 269 149.4 269.3 149.9ZM268.3 145.1C269.2 144.2 270.4 143.7 271.9 143.7H277.6V156H276V152.5H271.5L269.2 156H267.3L269.9 152.2C269.1 151.9 268.4 151.3 267.9 150.6C267.4 149.9 267.1 149.1 267.1 148.1C267.1 146.9 267.6 145.9 268.3 145.1Z"
                fill="#009944" />
        </g>
        <defs>
            <clipPath id="clip0">
                <rect width="318" height="158" fill="white" />
            </clipPath>
        </defs>
    </symbol>

    <symbol id="logo-etl" viewBox="0 0 318 163">
        <g>
            <path
                d="M136.439 151.982V146.118H139.372V151.982H140.594C141.083 151.982 141.327 151.982 141.572 151.737C141.816 151.737 141.816 151.493 142.061 151.249L143.527 148.072C143.772 147.339 144.505 146.606 144.994 146.362C145.482 146.118 146.216 145.873 147.193 145.873C147.927 145.873 148.416 145.873 149.149 146.118L148.904 148.805H147.927C147.438 148.805 147.193 148.805 146.949 149.05C146.705 149.294 146.46 149.294 146.46 149.538L144.994 152.471C144.749 152.715 144.505 153.204 144.505 153.204L149.638 161.511H145.971L141.816 154.67C141.572 154.67 141.327 154.67 141.083 154.67H139.616V161.511H136.683V154.67H135.217C134.972 154.67 134.728 154.67 134.484 154.67L130.328 161.511H126.662L131.795 153.204C131.55 152.959 131.306 152.715 131.306 152.471L129.84 149.538C129.595 149.294 129.595 149.05 129.351 149.05C129.106 148.805 128.617 148.805 128.373 148.805H127.395L127.151 146.118C127.884 145.873 128.373 145.873 129.106 145.873C129.84 145.873 130.817 146.118 131.306 146.362C132.039 146.606 132.528 147.339 132.773 148.072L134.239 151.249C134.239 151.493 134.484 151.737 134.728 151.737C134.972 151.982 135.217 151.982 135.706 151.982H136.439Z"
                fill="#2F2482" />
            <path
                d="M136.439 151.982V146.118H139.372V151.982H140.594C141.083 151.982 141.327 151.982 141.572 151.737C141.816 151.737 141.816 151.493 142.061 151.249L143.527 148.072C143.772 147.339 144.505 146.606 144.994 146.362C145.482 146.118 146.216 145.873 147.193 145.873C147.927 145.873 148.416 145.873 149.149 146.118L148.904 148.805H147.927C147.438 148.805 147.193 148.805 146.949 149.05C146.705 149.294 146.46 149.294 146.46 149.538L144.994 152.471C144.749 152.715 144.505 153.204 144.505 153.204L149.638 161.511H145.971L141.816 154.67C141.572 154.67 141.327 154.67 141.083 154.67H139.616V161.511H136.683V154.67H135.217C134.972 154.67 134.728 154.67 134.484 154.67L130.328 161.511H126.662L131.795 153.204C131.55 152.959 131.306 152.715 131.306 152.471L129.84 149.538C129.595 149.294 129.595 149.05 129.351 149.05C129.106 148.805 128.617 148.805 128.373 148.805H127.395L127.151 146.118C127.884 145.873 128.373 145.873 129.106 145.873C129.84 145.873 130.817 146.118 131.306 146.362C132.039 146.606 132.528 147.339 132.773 148.072L134.239 151.249C134.239 151.493 134.484 151.737 134.728 151.737C134.972 151.982 135.217 151.982 135.706 151.982H136.439V151.982Z"
                stroke="white" stroke-width="0.216" stroke-miterlimit="22.9256" fill="#2F2482" />
            <path
                d="M157.459 156.625L165.769 146.118H168.702V161.511H165.525V150.76L157.215 161.511H154.526V146.118H157.459V156.625Z"
                fill="#2F2482" />
            <path
                d="M157.459 156.625L165.769 146.118H168.702V161.511H165.525V150.76L157.215 161.511H154.526V146.118H157.459V156.625Z"
                stroke="white" stroke-width="0.216" stroke-miterlimit="22.9256" fill="#2F2482" />
            <path
                d="M189.723 146.118V161.511H186.79V148.806H181.412L180.19 158.091C179.946 159.312 179.701 160.045 178.968 160.778C178.235 161.511 177.257 161.756 176.28 161.756C175.302 161.756 174.569 161.756 173.591 161.267L174.324 158.579C175.057 158.824 175.302 158.824 175.791 158.824C176.28 158.824 176.768 158.579 177.013 158.579C177.257 158.335 177.257 158.091 177.502 157.358L178.968 146.118H189.723Z"
                fill="#2F2482" />
            <path
                d="M189.723 146.118V161.511H186.79V148.806H181.412L180.19 158.091C179.946 159.312 179.701 160.045 178.968 160.778C178.235 161.511 177.257 161.756 176.28 161.756C175.302 161.756 174.569 161.756 173.591 161.267L174.324 158.579C175.057 158.824 175.302 158.824 175.791 158.824C176.28 158.824 176.768 158.579 177.013 158.579C177.257 158.335 177.257 158.091 177.502 157.358L178.968 146.118H189.723V146.118Z"
                stroke="white" stroke-width="0.216" stroke-miterlimit="22.9256" fill="#2F2482" />
            <path
                d="M199.499 157.357C200.477 158.335 201.944 158.824 203.166 158.824C204.877 158.824 206.343 158.091 207.81 156.869L209.765 158.824C207.81 160.778 206.099 161.511 203.41 161.511C200.966 161.511 199.011 160.778 197.544 159.312C196.078 157.846 195.1 155.891 195.1 153.448C195.1 151.249 195.833 149.294 197.3 147.828C198.766 146.362 200.722 145.385 203.166 145.385C205.854 145.385 207.565 146.118 209.521 148.072L207.565 150.272C206.099 149.05 204.632 148.317 202.921 148.317C201.455 148.317 200.233 148.805 199.255 149.783C198.277 150.76 197.789 151.982 197.789 153.448C198.033 155.403 198.766 156.624 199.499 157.357Z"
                fill="#2F2482" />
            <path
                d="M199.499 157.357C200.477 158.335 201.944 158.824 203.166 158.824C204.877 158.824 206.343 158.091 207.81 156.869L209.765 158.824C207.81 160.778 206.099 161.511 203.41 161.511C200.966 161.511 199.011 160.778 197.544 159.312C196.078 157.846 195.1 155.891 195.1 153.448C195.1 151.249 195.833 149.294 197.3 147.828C198.766 146.362 200.722 145.385 203.166 145.385C205.854 145.385 207.565 146.118 209.521 148.072L207.565 150.272C206.099 149.05 204.632 148.317 202.921 148.317C201.455 148.317 200.233 148.805 199.255 149.783C198.277 150.76 197.789 151.982 197.789 153.448C198.033 155.403 198.766 156.624 199.499 157.357Z"
                stroke="white" stroke-width="0.216" stroke-miterlimit="22.9256" fill="#2F2482" />
            <path d="M214.165 146.118H228.341V148.806H222.719V161.511H219.786V148.806H214.165V146.118Z"
                fill="#2F2482" />
            <path d="M214.165 146.118H228.341V148.806H222.719V161.511H219.786V148.806H214.165V146.118Z" stroke="white"
                stroke-width="0.216" stroke-miterlimit="22.9256" fill="#2F2482" />
            <path
                d="M244.962 155.891C243.74 156.869 242.517 157.602 240.807 157.602H236.407V161.756H233.229V146.362H240.807C242.762 146.362 244.228 147.095 245.451 148.561C246.184 149.538 246.673 150.76 246.673 152.226C246.673 153.448 245.939 154.67 244.962 155.891ZM242.762 153.692C243.251 153.204 243.495 152.471 243.495 151.738C243.495 150.76 243.251 150.271 242.762 149.783C242.273 149.294 241.54 149.05 240.318 149.05H236.163V154.67H240.562C241.54 154.67 242.273 154.425 242.762 153.692Z"
                fill="#2F2482" />
            <path
                d="M244.962 155.891C243.74 156.869 242.517 157.602 240.807 157.602H236.407V161.756H233.229V146.362H240.807C242.762 146.362 244.228 147.095 245.451 148.561C246.184 149.538 246.673 150.76 246.673 152.226C246.673 153.448 245.939 154.67 244.962 155.891ZM242.762 153.692C243.251 153.204 243.495 152.471 243.495 151.738C243.495 150.76 243.251 150.271 242.762 149.783C242.273 149.294 241.54 149.05 240.318 149.05H236.163V154.67H240.562C241.54 154.67 242.273 154.425 242.762 153.692Z"
                stroke="white" stroke-width="0.216" stroke-miterlimit="22.9256" fill="#2F2482" />
            <path
                d="M265.493 148.072C266.96 149.538 267.937 151.493 267.937 153.937C267.937 156.136 267.204 158.09 265.738 159.556C264.271 161.023 262.316 162 259.871 162C257.427 162 255.227 161.023 253.761 159.556C252.539 158.09 251.561 156.136 251.561 153.937C251.561 151.737 252.294 149.783 253.761 148.317C255.227 146.851 257.183 145.873 259.871 145.873C262.071 145.873 264.027 146.606 265.493 148.072ZM255.961 157.357C256.938 158.335 258.16 159.068 259.627 159.068C261.094 159.068 262.316 158.579 263.293 157.602C264.027 156.624 264.76 155.403 264.76 153.937C264.76 152.471 264.271 151.004 263.538 150.271C262.56 149.294 261.338 148.805 259.871 148.805C258.405 148.805 257.183 149.294 256.205 150.271C255.472 151.249 254.739 152.471 254.739 153.937C254.494 155.403 254.983 156.38 255.961 157.357Z"
                fill="#2F2482" />
            <path
                d="M265.493 148.072C266.96 149.538 267.937 151.493 267.937 153.937C267.937 156.136 267.204 158.09 265.738 159.556C264.271 161.023 262.316 162 259.871 162C257.427 162 255.227 161.023 253.761 159.556C252.539 158.09 251.561 156.136 251.561 153.937C251.561 151.737 252.294 149.783 253.761 148.317C255.227 146.851 257.183 145.873 259.871 145.873C262.071 145.873 264.027 146.606 265.493 148.072ZM255.961 157.357C256.938 158.335 258.16 159.068 259.627 159.068C261.094 159.068 262.316 158.579 263.293 157.602C264.027 156.624 264.76 155.403 264.76 153.937C264.76 152.471 264.271 151.004 263.538 150.271C262.56 149.294 261.338 148.805 259.871 148.805C258.405 148.805 257.183 149.294 256.205 150.271C255.472 151.249 254.739 152.471 254.739 153.937C254.494 155.403 254.983 156.38 255.961 157.357Z"
                stroke="white" stroke-width="0.216" stroke-miterlimit="22.9256" fill="#2F2482" />
            <path
                d="M276.003 156.624L284.314 145.873H287.002V161.267H284.069V150.516L275.759 161.267H273.07V145.873H276.003V156.624ZM284.314 142.453C284.069 143.186 283.336 143.919 282.847 144.163C282.114 144.652 281.136 144.896 280.403 144.896C279.67 144.896 278.692 144.652 277.959 144.163C277.47 143.674 276.737 143.186 276.492 142.453L278.692 141.475C278.936 141.72 279.181 141.964 279.425 142.208C279.67 142.453 280.158 142.697 280.647 142.697C281.136 142.697 281.38 142.453 281.869 142.208C282.114 141.964 282.358 141.72 282.603 141.231L284.314 142.453Z"
                fill="#2F2482" />
            <path
                d="M276.003 156.624L284.314 145.873H287.002V161.267H284.069V150.516L275.759 161.267H273.07V145.873H276.003V156.624ZM284.314 142.453C284.069 143.186 283.336 143.919 282.847 144.163C282.114 144.652 281.136 144.896 280.403 144.896C279.67 144.896 278.692 144.652 277.959 144.163C277.47 143.674 276.737 143.186 276.492 142.453L278.692 141.475C278.936 141.72 279.181 141.964 279.425 142.208C279.67 142.453 280.158 142.697 280.647 142.697C281.136 142.697 281.38 142.453 281.869 142.208C282.114 141.964 282.358 141.72 282.603 141.231L284.314 142.453Z"
                stroke="white" stroke-width="0.216" stroke-miterlimit="22.9256" fill="#2F2482" />
            <path d="M244.228 38.3619L282.847 49.8461V64.5067L244.228 52.7782V38.3619Z" fill="#2F2482" />
            <path d="M244.473 38.3619L171.391 60.1085V64.7511L244.473 43.0045V38.3619Z" fill="#2F2482" />
            <path d="M244.228 0L282.847 11.4842V26.1448L244.228 14.4163V0Z" fill="#2F2482" />
            <path d="M244.473 0L171.391 21.7466V26.3891L244.473 4.64253V0Z" fill="#2F2482" />
            <path d="M244.228 19.0589L282.847 30.7874V45.2037L244.228 33.7195V19.0589Z" fill="#2F2482" />
            <path d="M244.473 19.0589L171.391 41.0498V45.6924L244.473 23.7014V19.0589Z" fill="#2F2482" />
            <path
                d="M302.401 84.2987V98.4706H282.847V84.2987H276.248V121.195H282.847V104.335H302.401V121.195H309V84.2987H302.401ZM238.851 102.869C238.851 99.2037 240.318 96.0272 242.273 93.5838C244.717 91.1403 248.139 89.6743 251.806 89.6743C255.472 89.6743 258.649 91.1403 261.094 93.5838C263.293 95.7829 264.515 98.9593 264.515 102.869C264.515 106.534 263.049 109.71 261.094 112.154C258.649 114.597 255.472 116.063 251.561 116.063C247.895 116.063 244.473 114.597 242.029 111.91C240.318 109.71 238.851 106.534 238.851 102.869ZM251.806 83.81C245.939 83.81 240.807 86.0091 237.385 89.6743C234.207 93.0951 232.252 97.7376 232.252 102.869C232.252 107.756 234.207 112.643 237.385 115.819C240.807 119.484 245.939 121.928 251.806 121.928C257.672 121.928 262.56 119.729 265.982 116.308C269.404 112.887 271.115 108.244 271.115 102.869C271.115 97.4933 269.159 92.6064 265.738 89.1856C262.316 85.7648 257.672 83.81 251.806 83.81ZM201.21 84.2987L197.544 111.421C197.3 112.643 196.811 113.864 196.078 114.597C195.344 115.33 194.367 115.575 193.145 115.575C192.167 115.575 191.189 115.575 189.723 115.086L188.501 120.462C190.7 121.195 192.167 121.439 194.367 121.439C197.055 121.439 199.255 120.706 200.722 119.24C202.188 117.774 203.166 115.819 203.655 112.887L206.832 89.9186H220.764V120.95H227.119V84.2987H201.21ZM165.525 91.1403H166.258L173.346 108.733H158.681L165.525 91.1403ZM162.592 84.2987L146.216 121.195H153.06L155.993 114.353H175.791L178.968 121.195H186.056L169.68 84.2987H162.592ZM114.441 90.4073H128.129V121.439H134.484V90.4073H148.171V84.543H114.441V90.4073ZM87.0659 105.068H106.62C106.375 107.756 105.397 109.955 103.931 111.665C101.487 114.353 97.8204 116.063 93.9097 116.063C89.5101 116.063 86.3327 114.353 82.9108 111.421L79 115.819C83.3996 119.973 87.7992 121.928 93.9097 121.928C99.5314 121.928 104.42 119.973 107.842 116.552C111.264 113.131 113.463 108.489 113.463 102.869C113.463 97.2489 111.264 92.6064 107.842 89.1856C104.175 85.7648 99.287 83.81 93.9097 83.81C87.7992 83.81 83.3996 85.7648 78.7556 89.6743L82.6663 94.0724C85.8438 91.1403 89.2657 89.6743 93.6653 89.6743C97.3316 89.6743 100.509 91.1403 103.198 93.5838C104.42 94.8055 105.642 97.0046 106.131 99.2037H86.5771V105.068H87.0659Z"
                fill="#1A1A18" />
        </g>
    </symbol>

    <symbol id="play" viewBox="0 0 22 26">
        <g>
            <path d="M0 0L22 13L4.60288e-07 26L0 0Z" fill="white" />
        </g>
    </symbol>
</svg>